<?xml version="1.0" encoding="utf-8"?>
<!-- Generator: Adobe Illustrator 27.9.0, SVG Export Plug-In . SVG Version: 6.00 Build 0)  -->
<svg version="1.1" xmlns="http://www.w3.org/2000/svg" xmlns:xlink="http://www.w3.org/1999/xlink" x="0px" y="0px"
	 height="800" width="800"
	 viewBox="0 0 800 800" enable-background="new 0 0 800 800" xml:space="preserve">
<g id="qrcode" display="none">
	<g id="dots" display="inline">
		<path id="block_00000006699346980324405550000007306879998762791828_" fill="#1B3FAA" d="M290,81c6.1,0,11,4.9,11,11
			s-4.9,11-11,11s-11-4.9-11-11S283.9,81,290,81z"/>
		<path id="block_00000074423275336100318710000014596152076124633486_" fill="#1B3FAA" d="M356,81c6.1,0,11,4.9,11,11
			s-4.9,11-11,11s-11-4.9-11-11S349.9,81,356,81z"/>
		<path id="block_00000021087346438919021060000006680473328673473958_" fill="#1B3FAA" d="M400,81c6.1,0,11,4.9,11,11
			s-4.9,11-11,11s-11-4.9-11-11S393.9,81,400,81z"/>
		<path id="block_00000100353333531458474300000002454887013856696739_" fill="#1B3FAA" d="M444,81c6.1,0,11,4.9,11,11
			s-4.9,11-11,11s-11-4.9-11-11S437.9,81,444,81z"/>
		<path id="block_00000113351469784069563970000001587342511612066715_" fill="#1B3FAA" d="M510,81c6.1,0,11,4.9,11,11
			s-4.9,11-11,11s-11-4.9-11-11S503.9,81,510,81z"/>
		<path id="block_00000159466838764265586350000016577174950185934729_" fill="#1B3FAA" d="M532,81c6.1,0,11,4.9,11,11
			s-4.9,11-11,11s-11-4.9-11-11S525.9,81,532,81z"/>
		<path id="block_00000019645953585465278450000005122779675557143453_" fill="#1B3FAA" d="M290,103c6.1,0,11,4.9,11,11
			s-4.9,11-11,11s-11-4.9-11-11S283.9,103,290,103z"/>
		<path id="block_00000047023633010221073640000002352562698426723238_" fill="#1B3FAA" d="M356,103c6.1,0,11,4.9,11,11
			s-4.9,11-11,11s-11-4.9-11-11S349.9,103,356,103z"/>
		<path id="block_00000016036834693631520920000015413794917936850338_" fill="#1B3FAA" d="M378,103c6.1,0,11,4.9,11,11
			s-4.9,11-11,11s-11-4.9-11-11S371.9,103,378,103z"/>
		<path id="block_00000137833641801048471770000018118887405898453130_" fill="#1B3FAA" d="M466,103c6.1,0,11,4.9,11,11
			s-4.9,11-11,11s-11-4.9-11-11S459.9,103,466,103z"/>
		<path id="block_00000109032076191039039730000016504523677081915042_" fill="#1B3FAA" d="M510,103c6.1,0,11,4.9,11,11
			s-4.9,11-11,11s-11-4.9-11-11S503.9,103,510,103z"/>
		<path id="block_00000038412499724977306110000017597659445792368295_" fill="#1B3FAA" d="M268,125c6.1,0,11,4.9,11,11
			s-4.9,11-11,11s-11-4.9-11-11S261.9,125,268,125z"/>
		<path id="block_00000162337444573640012340000003795653472630657152_" fill="#1B3FAA" d="M290,125c6.1,0,11,4.9,11,11
			s-4.9,11-11,11s-11-4.9-11-11S283.9,125,290,125z"/>
		<path id="block_00000061431930180286819960000016596419154665947838_" fill="#1B3FAA" d="M356,125c6.1,0,11,4.9,11,11
			s-4.9,11-11,11s-11-4.9-11-11S349.9,125,356,125z"/>
		<path id="block_00000100347350572564452900000011900603297484191668_" fill="#1B3FAA" d="M378,125c6.1,0,11,4.9,11,11
			s-4.9,11-11,11s-11-4.9-11-11S371.9,125,378,125z"/>
		<path id="block_00000101823512255149629920000009093338217026550453_" fill="#1B3FAA" d="M444,125c6.1,0,11,4.9,11,11
			s-4.9,11-11,11s-11-4.9-11-11S437.9,125,444,125z"/>
		<path id="block_00000148634875165564932650000013233606771377269950_" fill="#1B3FAA" d="M466,125c6.1,0,11,4.9,11,11
			s-4.9,11-11,11s-11-4.9-11-11S459.9,125,466,125z"/>
		<path id="block_00000128457101183615519720000012798941529920934827_" fill="#1B3FAA" d="M488,125c6.1,0,11,4.9,11,11
			s-4.9,11-11,11s-11-4.9-11-11S481.9,125,488,125z"/>
		<path id="block_00000069379277037665251700000004417044674442259869_" fill="#1B3FAA" d="M510,125c6.1,0,11,4.9,11,11
			s-4.9,11-11,11s-11-4.9-11-11S503.9,125,510,125z"/>
		<path id="block_00000012433079656856570240000014947220885912875947_" fill="#1B3FAA" d="M532,125c6.1,0,11,4.9,11,11
			s-4.9,11-11,11s-11-4.9-11-11S525.9,125,532,125z"/>
		<path id="block_00000126292413948364725870000006262230781872744861_" fill="#1B3FAA" d="M268,147c6.1,0,11,4.9,11,11
			s-4.9,11-11,11s-11-4.9-11-11S261.9,147,268,147z"/>
		<path id="block_00000024706870162299017450000010533440352655373968_" fill="#1B3FAA" d="M312,147c6.1,0,11,4.9,11,11
			s-4.9,11-11,11s-11-4.9-11-11S305.9,147,312,147z"/>
		<path id="block_00000096047395514784643020000008480729418939839879_" fill="#1B3FAA" d="M334,147c6.1,0,11,4.9,11,11
			s-4.9,11-11,11s-11-4.9-11-11S327.9,147,334,147z"/>
		<path id="block_00000078742649655356110140000006803084678127392698_" fill="#1B3FAA" d="M356,147c6.1,0,11,4.9,11,11
			s-4.9,11-11,11s-11-4.9-11-11S349.9,147,356,147z"/>
		<path id="block_00000052095055340119067400000012860147790115593866_" fill="#1B3FAA" d="M378,147c6.1,0,11,4.9,11,11
			s-4.9,11-11,11s-11-4.9-11-11S371.9,147,378,147z"/>
		<path id="block_00000037674931329094685260000002635761448751652514_" fill="#1B3FAA" d="M400,147c6.1,0,11,4.9,11,11
			s-4.9,11-11,11s-11-4.9-11-11S393.9,147,400,147z"/>
		<path id="block_00000031893227395355660950000006932257805305632691_" fill="#1B3FAA" d="M422,147c6.1,0,11,4.9,11,11
			s-4.9,11-11,11s-11-4.9-11-11S415.9,147,422,147z"/>
		<path id="block_00000096050047520069611500000008155440939228203693_" fill="#1B3FAA" d="M444,147c6.1,0,11,4.9,11,11
			s-4.9,11-11,11s-11-4.9-11-11S437.9,147,444,147z"/>
		<path id="block_00000055670044629734581820000005901271753371386505_" fill="#1B3FAA" d="M466,147c6.1,0,11,4.9,11,11
			s-4.9,11-11,11s-11-4.9-11-11S459.9,147,466,147z"/>
		<path id="block_00000136380745614542138340000009513819434801616525_" fill="#1B3FAA" d="M488,147c6.1,0,11,4.9,11,11
			s-4.9,11-11,11s-11-4.9-11-11S481.9,147,488,147z"/>
		<path id="block_00000007428462705596506670000011817725877697812365_" fill="#1B3FAA" d="M268,169c6.1,0,11,4.9,11,11
			s-4.9,11-11,11s-11-4.9-11-11S261.9,169,268,169z"/>
		<path id="block_00000132797932251535265350000017742752782599661197_" fill="#1B3FAA" d="M312,169c6.1,0,11,4.9,11,11
			s-4.9,11-11,11s-11-4.9-11-11S305.9,169,312,169z"/>
		<path id="block_00000132082543933587789120000004883575267394789050_" fill="#1B3FAA" d="M400,169c6.1,0,11,4.9,11,11
			s-4.9,11-11,11s-11-4.9-11-11S393.9,169,400,169z"/>
		<path id="block_00000097490833247626196610000008907523173732039304_" fill="#1B3FAA" d="M422,169c6.1,0,11,4.9,11,11
			s-4.9,11-11,11s-11-4.9-11-11S415.9,169,422,169z"/>
		<path id="block_00000142875870455240040450000007549469349025747079_" fill="#1B3FAA" d="M488,169c6.1,0,11,4.9,11,11
			s-4.9,11-11,11s-11-4.9-11-11S481.9,169,488,169z"/>
		<path id="block_00000046321255055811947370000009784419419067827894_" fill="#1B3FAA" d="M510,169c6.1,0,11,4.9,11,11
			s-4.9,11-11,11s-11-4.9-11-11S503.9,169,510,169z"/>
		<path id="block_00000072275354082219654380000018187872831786332574_" fill="#1B3FAA" d="M268,191c6.1,0,11,4.9,11,11
			s-4.9,11-11,11s-11-4.9-11-11S261.9,191,268,191z"/>
		<path id="block_00000075154493066049876910000008667116459852089491_" fill="#1B3FAA" d="M334,191c6.1,0,11,4.9,11,11
			s-4.9,11-11,11s-11-4.9-11-11S327.9,191,334,191z"/>
		<path id="block_00000098197971735193604160000009115500542870822554_" fill="#1B3FAA" d="M466,191c6.1,0,11,4.9,11,11
			s-4.9,11-11,11s-11-4.9-11-11S459.9,191,466,191z"/>
		<path id="block_00000150088259160110413160000000323070865498547871_" fill="#1B3FAA" d="M532,191c6.1,0,11,4.9,11,11
			s-4.9,11-11,11s-11-4.9-11-11S525.9,191,532,191z"/>
		<path id="block_00000106848603659288501840000006474496848591104668_" fill="#1B3FAA" d="M268,213c6.1,0,11,4.9,11,11
			s-4.9,11-11,11s-11-4.9-11-11S261.9,213,268,213z"/>
		<path id="block_00000166664235204670278910000002224171798240339332_" fill="#1B3FAA" d="M312,213c6.1,0,11,4.9,11,11
			s-4.9,11-11,11s-11-4.9-11-11S305.9,213,312,213z"/>
		<path id="block_00000011032815461316506640000011720691662069706134_" fill="#1B3FAA" d="M356,213c6.1,0,11,4.9,11,11
			s-4.9,11-11,11s-11-4.9-11-11S349.9,213,356,213z"/>
		<path id="block_00000153671000893115932400000016814164892611234463_" fill="#1B3FAA" d="M400,213c6.1,0,11,4.9,11,11
			s-4.9,11-11,11s-11-4.9-11-11S393.9,213,400,213z"/>
		<path id="block_00000168089988199277508950000010468901187217947551_" fill="#1B3FAA" d="M444,213c6.1,0,11,4.9,11,11
			s-4.9,11-11,11s-11-4.9-11-11S437.9,213,444,213z"/>
		<path id="block_00000157999794153886363140000016659460845514975115_" fill="#1B3FAA" d="M488,213c6.1,0,11,4.9,11,11
			s-4.9,11-11,11s-11-4.9-11-11S481.9,213,488,213z"/>
		<path id="block_00000161628512148465744950000014299655291092199557_" fill="#1B3FAA" d="M532,213c6.1,0,11,4.9,11,11
			s-4.9,11-11,11s-11-4.9-11-11S525.9,213,532,213z"/>
		<path id="block_00000134213949158704266260000010905834586435499410_" fill="#1B3FAA" d="M268,235c6.1,0,11,4.9,11,11
			s-4.9,11-11,11s-11-4.9-11-11S261.9,235,268,235z"/>
		<path id="block_00000100359078585013720880000012681784277175469989_" fill="#1B3FAA" d="M312,235c6.1,0,11,4.9,11,11
			s-4.9,11-11,11s-11-4.9-11-11S305.9,235,312,235z"/>
		<path id="block_00000046302444193747685670000015853331358761927086_" fill="#1B3FAA" d="M356,235c6.1,0,11,4.9,11,11
			s-4.9,11-11,11s-11-4.9-11-11S349.9,235,356,235z"/>
		<path id="block_00000035508434688026107210000004480092493406786179_" fill="#1B3FAA" d="M444,235c6.1,0,11,4.9,11,11
			s-4.9,11-11,11s-11-4.9-11-11S437.9,235,444,235z"/>
		<path id="block_00000033355087378855973610000013873955387684783546_" fill="#1B3FAA" d="M488,235c6.1,0,11,4.9,11,11
			s-4.9,11-11,11s-11-4.9-11-11S481.9,235,488,235z"/>
		<path id="block_00000181777112774257229570000011736492399452682922_" fill="#1B3FAA" d="M510,235c6.1,0,11,4.9,11,11
			s-4.9,11-11,11s-11-4.9-11-11S503.9,235,510,235z"/>
		<path id="block_00000109010262787472902770000012080002493551868595_" fill="#1B3FAA" d="M532,235c6.1,0,11,4.9,11,11
			s-4.9,11-11,11s-11-4.9-11-11S525.9,235,532,235z"/>
		<path id="block_00000036939964224655686770000010728041148792624011_" fill="#1B3FAA" d="M92,257c6.1,0,11,4.9,11,11
			s-4.9,11-11,11s-11-4.9-11-11S85.9,257,92,257z"/>
		<path id="block_00000133531126720382822010000014027510880479511477_" fill="#1B3FAA" d="M136,257c6.1,0,11,4.9,11,11
			s-4.9,11-11,11s-11-4.9-11-11S129.9,257,136,257z"/>
		<path id="block_00000039853812776587149980000009891270601127224996_" fill="#1B3FAA" d="M158,257c6.1,0,11,4.9,11,11
			s-4.9,11-11,11s-11-4.9-11-11S151.9,257,158,257z"/>
		<path id="block_00000003099864552009724580000001584534887132516022_" fill="#1B3FAA" d="M180,257c6.1,0,11,4.9,11,11
			s-4.9,11-11,11s-11-4.9-11-11S173.9,257,180,257z"/>
		<path id="block_00000178889870495842185280000001202752225428677054_" fill="#1B3FAA" d="M202,257c6.1,0,11,4.9,11,11
			s-4.9,11-11,11s-11-4.9-11-11S195.9,257,202,257z"/>
		<path id="block_00000158006915245168642190000015753361428616871331_" fill="#1B3FAA" d="M224,257c6.1,0,11,4.9,11,11
			s-4.9,11-11,11s-11-4.9-11-11S217.9,257,224,257z"/>
		<path id="block_00000152225974476150417270000003791578409717193376_" fill="#1B3FAA" d="M334,257c6.1,0,11,4.9,11,11
			s-4.9,11-11,11s-11-4.9-11-11S327.9,257,334,257z"/>
		<path id="block_00000121263377295041911710000006754045771782487210_" fill="#1B3FAA" d="M356,257c6.1,0,11,4.9,11,11
			s-4.9,11-11,11s-11-4.9-11-11S349.9,257,356,257z"/>
		<path id="block_00000075862680790736117910000014631211992997409939_" fill="#1B3FAA" d="M422,257c6.1,0,11,4.9,11,11
			s-4.9,11-11,11s-11-4.9-11-11S415.9,257,422,257z"/>
		<path id="block_00000091731520449040036800000012521138972967012771_" fill="#1B3FAA" d="M576,257c6.1,0,11,4.9,11,11
			s-4.9,11-11,11s-11-4.9-11-11S569.9,257,576,257z"/>
		<path id="block_00000181789798175192421490000007176134069909522312_" fill="#1B3FAA" d="M598,257c6.1,0,11,4.9,11,11
			s-4.9,11-11,11s-11-4.9-11-11S591.9,257,598,257z"/>
		<path id="block_00000147930390286069757900000006060907429349691537_" fill="#1B3FAA" d="M620,257c6.1,0,11,4.9,11,11
			s-4.9,11-11,11s-11-4.9-11-11S613.9,257,620,257z"/>
		<path id="block_00000096774398246064263490000001426592520241129884_" fill="#1B3FAA" d="M642,257c6.1,0,11,4.9,11,11
			s-4.9,11-11,11s-11-4.9-11-11S635.9,257,642,257z"/>
		<path id="block_00000136380578058716815350000016472701269907080111_" fill="#1B3FAA" d="M664,257c6.1,0,11,4.9,11,11
			s-4.9,11-11,11s-11-4.9-11-11S657.9,257,664,257z"/>
		<path id="block_00000036246164086909546370000003221807665463079574_" fill="#1B3FAA" d="M114,279c6.1,0,11,4.9,11,11
			s-4.9,11-11,11s-11-4.9-11-11S107.9,279,114,279z"/>
		<path id="block_00000033331479242587111360000007667531397138399649_" fill="#1B3FAA" d="M136,279c6.1,0,11,4.9,11,11
			s-4.9,11-11,11s-11-4.9-11-11S129.9,279,136,279z"/>
		<path id="block_00000016769040142050716060000010421750175860660869_" fill="#1B3FAA" d="M202,279c6.1,0,11,4.9,11,11
			s-4.9,11-11,11s-11-4.9-11-11S195.9,279,202,279z"/>
		<path id="block_00000014633092824351792740000006069850761228425915_" fill="#1B3FAA" d="M576,279c6.1,0,11,4.9,11,11
			s-4.9,11-11,11s-11-4.9-11-11S569.9,279,576,279z"/>
		<path id="block_00000044143356586104533440000006262378641940691868_" fill="#1B3FAA" d="M598,279c6.1,0,11,4.9,11,11
			s-4.9,11-11,11s-11-4.9-11-11S591.9,279,598,279z"/>
		<path id="block_00000120550586785125447400000003482108523393591696_" fill="#1B3FAA" d="M642,279c6.1,0,11,4.9,11,11
			s-4.9,11-11,11s-11-4.9-11-11S635.9,279,642,279z"/>
		<path id="block_00000013178800253579391700000015172638902361604791_" fill="#1B3FAA" d="M686,279c6.1,0,11,4.9,11,11
			s-4.9,11-11,11s-11-4.9-11-11S679.9,279,686,279z"/>
		<path id="block_00000019654838849660785200000005930734660194726328_" fill="#1B3FAA" d="M92,301c6.1,0,11,4.9,11,11
			s-4.9,11-11,11s-11-4.9-11-11S85.9,301,92,301z"/>
		<path id="block_00000099632834641492798060000003864139928308997251_" fill="#1B3FAA" d="M114,301c6.1,0,11,4.9,11,11
			s-4.9,11-11,11s-11-4.9-11-11S107.9,301,114,301z"/>
		<path id="block_00000132771653545276035380000008868215860542799269_" fill="#1B3FAA" d="M158,301c6.1,0,11,4.9,11,11
			s-4.9,11-11,11s-11-4.9-11-11S151.9,301,158,301z"/>
		<path id="block_00000004536901143314601840000000991342791726219176_" fill="#1B3FAA" d="M202,301c6.1,0,11,4.9,11,11
			s-4.9,11-11,11s-11-4.9-11-11S195.9,301,202,301z"/>
		<path id="block_00000064337455281453182570000017497356415289184132_" fill="#1B3FAA" d="M224,301c6.1,0,11,4.9,11,11
			s-4.9,11-11,11s-11-4.9-11-11S217.9,301,224,301z"/>
		<path id="block_00000023983943049911591830000002270379726897956498_" fill="#1B3FAA" d="M268,301c6.1,0,11,4.9,11,11
			s-4.9,11-11,11s-11-4.9-11-11S261.9,301,268,301z"/>
		<path id="block_00000047050553920973301730000009345844457754409132_" fill="#1B3FAA" d="M532,301c6.1,0,11,4.9,11,11
			s-4.9,11-11,11s-11-4.9-11-11S525.9,301,532,301z"/>
		<path id="block_00000160894015224804911560000008383458935232574354_" fill="#1B3FAA" d="M642,301c6.1,0,11,4.9,11,11
			s-4.9,11-11,11s-11-4.9-11-11S635.9,301,642,301z"/>
		<path id="block_00000005248431535168455020000004372628884200179076_" fill="#1B3FAA" d="M664,301c6.1,0,11,4.9,11,11
			s-4.9,11-11,11s-11-4.9-11-11S657.9,301,664,301z"/>
		<path id="block_00000134954621550223175980000005882444662263811458_" fill="#1B3FAA" d="M114,323c6.1,0,11,4.9,11,11
			s-4.9,11-11,11s-11-4.9-11-11S107.9,323,114,323z"/>
		<path id="block_00000037673660141529009210000001688785797639974813_" fill="#1B3FAA" d="M136,323c6.1,0,11,4.9,11,11
			s-4.9,11-11,11s-11-4.9-11-11S129.9,323,136,323z"/>
		<path id="block_00000161604276581641885080000000189803875766985621_" fill="#1B3FAA" d="M202,323c6.1,0,11,4.9,11,11
			s-4.9,11-11,11s-11-4.9-11-11S195.9,323,202,323z"/>
		<path id="block_00000133488310755409389920000010126950418016291207_" fill="#1B3FAA" d="M246,323c6.1,0,11,4.9,11,11
			s-4.9,11-11,11s-11-4.9-11-11S239.9,323,246,323z"/>
		<path id="block_00000020389646680778016120000005564454321236824509_" fill="#1B3FAA" d="M532,323c6.1,0,11,4.9,11,11
			s-4.9,11-11,11s-11-4.9-11-11S525.9,323,532,323z"/>
		<path id="block_00000028282929488153727070000011514663088074603167_" fill="#1B3FAA" d="M576,323c6.1,0,11,4.9,11,11
			s-4.9,11-11,11s-11-4.9-11-11S569.9,323,576,323z"/>
		<path id="block_00000121276225580344233990000001126124465060485001_" fill="#1B3FAA" d="M598,323c6.1,0,11,4.9,11,11
			s-4.9,11-11,11s-11-4.9-11-11S591.9,323,598,323z"/>
		<path id="block_00000182524149169143186330000016927008338523868550_" fill="#1B3FAA" d="M620,323c6.1,0,11,4.9,11,11
			s-4.9,11-11,11s-11-4.9-11-11S613.9,323,620,323z"/>
		<path id="block_00000166652612259066744320000001624874386611458488_" fill="#1B3FAA" d="M642,323c6.1,0,11,4.9,11,11
			s-4.9,11-11,11s-11-4.9-11-11S635.9,323,642,323z"/>
		<path id="block_00000176001245835872008470000015639013824397194627_" fill="#1B3FAA" d="M708,323c6.1,0,11,4.9,11,11
			s-4.9,11-11,11s-11-4.9-11-11S701.9,323,708,323z"/>
		<path id="block_00000164472398479082335500000016715148366052163254_" fill="#1B3FAA" d="M92,345c6.1,0,11,4.9,11,11
			s-4.9,11-11,11s-11-4.9-11-11S85.9,345,92,345z"/>
		<path id="block_00000065038005428484952470000016139345793099897475_" fill="#1B3FAA" d="M136,345c6.1,0,11,4.9,11,11
			s-4.9,11-11,11s-11-4.9-11-11S129.9,345,136,345z"/>
		<path id="block_00000096018445436263243410000016658850995752480136_" fill="#1B3FAA" d="M180,345c6.1,0,11,4.9,11,11
			s-4.9,11-11,11s-11-4.9-11-11S173.9,345,180,345z"/>
		<path id="block_00000072250687522501204130000002239691195676941474_" fill="#1B3FAA" d="M224,345c6.1,0,11,4.9,11,11
			s-4.9,11-11,11s-11-4.9-11-11S217.9,345,224,345z"/>
		<path id="block_00000149368926010286108390000017016935861037326472_" fill="#1B3FAA" d="M268,345c6.1,0,11,4.9,11,11
			s-4.9,11-11,11s-11-4.9-11-11S261.9,345,268,345z"/>
		<path id="block_00000007406821723458845450000014604637557777217455_" fill="#1B3FAA" d="M620,345c6.1,0,11,4.9,11,11
			s-4.9,11-11,11s-11-4.9-11-11S613.9,345,620,345z"/>
		<path id="block_00000048462665979181681570000011383885744657409696_" fill="#1B3FAA" d="M92,367c6.1,0,11,4.9,11,11
			s-4.9,11-11,11s-11-4.9-11-11S85.9,367,92,367z"/>
		<path id="block_00000056404583400514947670000006911965787253519281_" fill="#1B3FAA" d="M180,367c6.1,0,11,4.9,11,11
			s-4.9,11-11,11s-11-4.9-11-11S173.9,367,180,367z"/>
		<path id="block_00000036246625255485568300000004982258784984045700_" fill="#1B3FAA" d="M202,367c6.1,0,11,4.9,11,11
			s-4.9,11-11,11s-11-4.9-11-11S195.9,367,202,367z"/>
		<path id="block_00000024720150507910134620000002188081566600590983_" fill="#1B3FAA" d="M554,367c6.1,0,11,4.9,11,11
			s-4.9,11-11,11s-11-4.9-11-11S547.9,367,554,367z"/>
		<path id="block_00000013908219745801034380000005554013514134782643_" fill="#1B3FAA" d="M642,367c6.1,0,11,4.9,11,11
			s-4.9,11-11,11s-11-4.9-11-11S635.9,367,642,367z"/>
		<path id="block_00000093883902468127955160000007023161118941021615_" fill="#1B3FAA" d="M686,367c6.1,0,11,4.9,11,11
			s-4.9,11-11,11s-11-4.9-11-11S679.9,367,686,367z"/>
		<path id="block_00000168829632636016787270000017873868658376144558_" fill="#1B3FAA" d="M114,389c6.1,0,11,4.9,11,11
			s-4.9,11-11,11s-11-4.9-11-11S107.9,389,114,389z"/>
		<path id="block_00000182496020913944633800000017522898901649078712_" fill="#1B3FAA" d="M136,389c6.1,0,11,4.9,11,11
			s-4.9,11-11,11s-11-4.9-11-11S129.9,389,136,389z"/>
		<path id="block_00000114784057397682367070000013158682465322687888_" fill="#1B3FAA" d="M158,389c6.1,0,11,4.9,11,11
			s-4.9,11-11,11s-11-4.9-11-11S151.9,389,158,389z"/>
		<path id="block_00000101804286674087062730000002595612422741140633_" fill="#1B3FAA" d="M180,389c6.1,0,11,4.9,11,11
			s-4.9,11-11,11s-11-4.9-11-11S173.9,389,180,389z"/>
		<path id="block_00000143586763412530057370000010101950760752572572_" fill="#1B3FAA" d="M202,389c6.1,0,11,4.9,11,11
			s-4.9,11-11,11s-11-4.9-11-11S195.9,389,202,389z"/>
		<path id="block_00000114754131136699357280000010585735306686539956_" fill="#1B3FAA" d="M224,389c6.1,0,11,4.9,11,11
			s-4.9,11-11,11s-11-4.9-11-11S217.9,389,224,389z"/>
		<path id="block_00000003822056732772605740000017914189798853238422_" fill="#1B3FAA" d="M246,389c6.1,0,11,4.9,11,11
			s-4.9,11-11,11s-11-4.9-11-11S239.9,389,246,389z"/>
		<path id="block_00000179628213764232677950000004378930098875576483_" fill="#1B3FAA" d="M642,389c6.1,0,11,4.9,11,11
			s-4.9,11-11,11s-11-4.9-11-11S635.9,389,642,389z"/>
		<path id="block_00000168107105786499565810000002469754825186226570_" fill="#1B3FAA" d="M664,389c6.1,0,11,4.9,11,11
			s-4.9,11-11,11s-11-4.9-11-11S657.9,389,664,389z"/>
		<path id="block_00000134228490348075183340000002987589094372900237_" fill="#1B3FAA" d="M686,389c6.1,0,11,4.9,11,11
			s-4.9,11-11,11s-11-4.9-11-11S679.9,389,686,389z"/>
		<path id="block_00000179628000364334007240000007035013821765969838_" fill="#1B3FAA" d="M708,389c6.1,0,11,4.9,11,11
			s-4.9,11-11,11s-11-4.9-11-11S701.9,389,708,389z"/>
		<path id="block_00000052795027945938396880000005032732091127589008_" fill="#1B3FAA" d="M246,411c6.1,0,11,4.9,11,11
			s-4.9,11-11,11s-11-4.9-11-11S239.9,411,246,411z"/>
		<path id="block_00000003806746013258858720000001457955671172031143_" fill="#1B3FAA" d="M268,411c6.1,0,11,4.9,11,11
			s-4.9,11-11,11s-11-4.9-11-11S261.9,411,268,411z"/>
		<path id="block_00000130615215726446113970000008436831081046944139_" fill="#1B3FAA" d="M532,411c6.1,0,11,4.9,11,11
			s-4.9,11-11,11s-11-4.9-11-11S525.9,411,532,411z"/>
		<path id="block_00000062907296088078871590000002158634597447384219_" fill="#1B3FAA" d="M554,411c6.1,0,11,4.9,11,11
			s-4.9,11-11,11s-11-4.9-11-11S547.9,411,554,411z"/>
		<path id="block_00000129914761817694193120000017295991519981643405_" fill="#1B3FAA" d="M576,411c6.1,0,11,4.9,11,11
			s-4.9,11-11,11s-11-4.9-11-11S569.9,411,576,411z"/>
		<path id="block_00000175289423338343424330000004203774904078119586_" fill="#1B3FAA" d="M598,411c6.1,0,11,4.9,11,11
			s-4.9,11-11,11s-11-4.9-11-11S591.9,411,598,411z"/>
		<path id="block_00000148624916430289985270000005772979931756479423_" fill="#1B3FAA" d="M620,411c6.1,0,11,4.9,11,11
			s-4.9,11-11,11s-11-4.9-11-11S613.9,411,620,411z"/>
		<path id="block_00000078764766783371300570000016153772241583420327_" fill="#1B3FAA" d="M686,411c6.1,0,11,4.9,11,11
			s-4.9,11-11,11s-11-4.9-11-11S679.9,411,686,411z"/>
		<path id="block_00000062887620590287677290000001876584224619690883_" fill="#1B3FAA" d="M708,411c6.1,0,11,4.9,11,11
			s-4.9,11-11,11s-11-4.9-11-11S701.9,411,708,411z"/>
		<path id="block_00000035502006136944291530000008364010723302760088_" fill="#1B3FAA" d="M92,433c6.1,0,11,4.9,11,11
			s-4.9,11-11,11s-11-4.9-11-11S85.9,433,92,433z"/>
		<path id="block_00000114050096694489027620000004978324679284968339_" fill="#1B3FAA" d="M114,433c6.1,0,11,4.9,11,11
			s-4.9,11-11,11s-11-4.9-11-11S107.9,433,114,433z"/>
		<path id="block_00000109025068320202403680000004257012953329532570_" fill="#1B3FAA" d="M136,433c6.1,0,11,4.9,11,11
			s-4.9,11-11,11s-11-4.9-11-11S129.9,433,136,433z"/>
		<path id="block_00000160162658042060648500000004394197388815603338_" fill="#1B3FAA" d="M224,433c6.1,0,11,4.9,11,11
			s-4.9,11-11,11s-11-4.9-11-11S217.9,433,224,433z"/>
		<path id="block_00000088130369510044267980000012191453510710055066_" fill="#1B3FAA" d="M246,433c6.1,0,11,4.9,11,11
			s-4.9,11-11,11s-11-4.9-11-11S239.9,433,246,433z"/>
		<path id="block_00000119088378031716355500000006989112981948940957_" fill="#1B3FAA" d="M268,433c6.1,0,11,4.9,11,11
			s-4.9,11-11,11s-11-4.9-11-11S261.9,433,268,433z"/>
		<path id="block_00000062874545169641096510000012253879125467236491_" fill="#1B3FAA" d="M576,433c6.1,0,11,4.9,11,11
			s-4.9,11-11,11s-11-4.9-11-11S569.9,433,576,433z"/>
		<path id="block_00000021121227884539734970000004447337595455226805_" fill="#1B3FAA" d="M620,433c6.1,0,11,4.9,11,11
			s-4.9,11-11,11s-11-4.9-11-11S613.9,433,620,433z"/>
		<path id="block_00000031206816906220668780000015855528543513042309_" fill="#1B3FAA" d="M92,455c6.1,0,11,4.9,11,11
			s-4.9,11-11,11s-11-4.9-11-11S85.9,455,92,455z"/>
		<path id="block_00000040544744614951839610000005513367843054291872_" fill="#1B3FAA" d="M136,455c6.1,0,11,4.9,11,11
			s-4.9,11-11,11s-11-4.9-11-11S129.9,455,136,455z"/>
		<path id="block_00000121975038282855300020000002731164782749437110_" fill="#1B3FAA" d="M158,455c6.1,0,11,4.9,11,11
			s-4.9,11-11,11s-11-4.9-11-11S151.9,455,158,455z"/>
		<path id="block_00000167394312120630797630000000165713996119938970_" fill="#1B3FAA" d="M246,455c6.1,0,11,4.9,11,11
			s-4.9,11-11,11s-11-4.9-11-11S239.9,455,246,455z"/>
		<path id="block_00000016770825722399766360000012810765429176613793_" fill="#1B3FAA" d="M268,455c6.1,0,11,4.9,11,11
			s-4.9,11-11,11s-11-4.9-11-11S261.9,455,268,455z"/>
		<path id="block_00000047739588738281510390000002280423564834819981_" fill="#1B3FAA" d="M532,455c6.1,0,11,4.9,11,11
			s-4.9,11-11,11s-11-4.9-11-11S525.9,455,532,455z"/>
		<path id="block_00000077285415839474782510000005152341648056398986_" fill="#1B3FAA" d="M576,455c6.1,0,11,4.9,11,11
			s-4.9,11-11,11s-11-4.9-11-11S569.9,455,576,455z"/>
		<path id="block_00000158008831425055897990000007344033630231618463_" fill="#1B3FAA" d="M620,455c6.1,0,11,4.9,11,11
			s-4.9,11-11,11s-11-4.9-11-11S613.9,455,620,455z"/>
		<path id="block_00000011741726220476705200000007568669280139357881_" fill="#1B3FAA" d="M642,455c6.1,0,11,4.9,11,11
			s-4.9,11-11,11s-11-4.9-11-11S635.9,455,642,455z"/>
		<path id="block_00000071528432967700138340000005812518182437465244_" fill="#1B3FAA" d="M686,455c6.1,0,11,4.9,11,11
			s-4.9,11-11,11s-11-4.9-11-11S679.9,455,686,455z"/>
		<path id="block_00000098188642568460885860000017979434264241575321_" fill="#1B3FAA" d="M92,477c6.1,0,11,4.9,11,11
			s-4.9,11-11,11s-11-4.9-11-11S85.9,477,92,477z"/>
		<path id="block_00000109712226762170818530000001150037881220786819_" fill="#1B3FAA" d="M224,477c6.1,0,11,4.9,11,11
			s-4.9,11-11,11s-11-4.9-11-11S217.9,477,224,477z"/>
		<path id="block_00000116229823762902568500000010897965776394328469_" fill="#1B3FAA" d="M246,477c6.1,0,11,4.9,11,11
			s-4.9,11-11,11s-11-4.9-11-11S239.9,477,246,477z"/>
		<path id="block_00000140013190347460047140000000942976220119952819_" fill="#1B3FAA" d="M268,477c6.1,0,11,4.9,11,11
			s-4.9,11-11,11s-11-4.9-11-11S261.9,477,268,477z"/>
		<path id="block_00000017504717501425942960000001843415903827821475_" fill="#1B3FAA" d="M532,477c6.1,0,11,4.9,11,11
			s-4.9,11-11,11s-11-4.9-11-11S525.9,477,532,477z"/>
		<path id="block_00000028293809911649301780000008721252713177811627_" fill="#1B3FAA" d="M598,477c6.1,0,11,4.9,11,11
			s-4.9,11-11,11s-11-4.9-11-11S591.9,477,598,477z"/>
		<path id="block_00000132793199949993280120000013759623115962337980_" fill="#1B3FAA" d="M642,477c6.1,0,11,4.9,11,11
			s-4.9,11-11,11s-11-4.9-11-11S635.9,477,642,477z"/>
		<path id="block_00000070078399287377431360000003392456501778947228_" fill="#1B3FAA" d="M664,477c6.1,0,11,4.9,11,11
			s-4.9,11-11,11s-11-4.9-11-11S657.9,477,664,477z"/>
		<path id="block_00000035496738450402858330000012223518432776406711_" fill="#1B3FAA" d="M92,499c6.1,0,11,4.9,11,11
			c0,6.1-4.9,11-11,11s-11-4.9-11-11S85.9,499,92,499z"/>
		<path id="block_00000043439476577390142660000007257154960941196173_" fill="#1B3FAA" d="M136,499c6.1,0,11,4.9,11,11
			c0,6.1-4.9,11-11,11s-11-4.9-11-11S129.9,499,136,499z"/>
		<path id="block_00000034802338737409651900000014039173059015795872_" fill="#1B3FAA" d="M158,499c6.1,0,11,4.9,11,11
			c0,6.1-4.9,11-11,11s-11-4.9-11-11S151.9,499,158,499z"/>
		<path id="block_00000144334211797367503710000008821735114663046312_" fill="#1B3FAA" d="M202,499c6.1,0,11,4.9,11,11
			c0,6.1-4.9,11-11,11s-11-4.9-11-11S195.9,499,202,499z"/>
		<path id="block_00000127003455517835152120000014316020548907384488_" fill="#1B3FAA" d="M532,499c6.1,0,11,4.9,11,11
			c0,6.1-4.9,11-11,11s-11-4.9-11-11S525.9,499,532,499z"/>
		<path id="block_00000179641281988409064880000005023272629262560645_" fill="#1B3FAA" d="M554,499c6.1,0,11,4.9,11,11
			c0,6.1-4.9,11-11,11s-11-4.9-11-11S547.9,499,554,499z"/>
		<path id="block_00000025423689961553361860000007473465496282385046_" fill="#1B3FAA" d="M576,499c6.1,0,11,4.9,11,11
			c0,6.1-4.9,11-11,11s-11-4.9-11-11S569.9,499,576,499z"/>
		<path id="block_00000030489101175962749090000010002743429454244227_" fill="#1B3FAA" d="M598,499c6.1,0,11,4.9,11,11
			c0,6.1-4.9,11-11,11s-11-4.9-11-11S591.9,499,598,499z"/>
		<path id="block_00000034068918557657730620000008869762464415301762_" fill="#1B3FAA" d="M620,499c6.1,0,11,4.9,11,11
			c0,6.1-4.9,11-11,11s-11-4.9-11-11S613.9,499,620,499z"/>
		<path id="block_00000181790916690608141890000009616765836582324409_" fill="#1B3FAA" d="M686,499c6.1,0,11,4.9,11,11
			c0,6.1-4.9,11-11,11s-11-4.9-11-11S679.9,499,686,499z"/>
		<path id="block_00000158730553490476406420000005914747178801376396_" fill="#1B3FAA" d="M708,499c6.1,0,11,4.9,11,11
			c0,6.1-4.9,11-11,11s-11-4.9-11-11S701.9,499,708,499z"/>
		<path id="block_00000088099429556068066110000005251603271782816168_" fill="#1B3FAA" d="M92,521c6.1,0,11,4.9,11,11
			s-4.9,11-11,11s-11-4.9-11-11S85.9,521,92,521z"/>
		<path id="block_00000146483684219437629510000014469643396927429811_" fill="#1B3FAA" d="M158,521c6.1,0,11,4.9,11,11
			s-4.9,11-11,11s-11-4.9-11-11S151.9,521,158,521z"/>
		<path id="block_00000142873259681157052190000009591470003203175596_" fill="#1B3FAA" d="M180,521c6.1,0,11,4.9,11,11
			s-4.9,11-11,11s-11-4.9-11-11S173.9,521,180,521z"/>
		<path id="block_00000142867047981376690940000010838205960117104002_" fill="#1B3FAA" d="M224,521c6.1,0,11,4.9,11,11
			s-4.9,11-11,11s-11-4.9-11-11S217.9,521,224,521z"/>
		<path id="block_00000116225766394680703130000014592695064916978597_" fill="#1B3FAA" d="M312,521c6.1,0,11,4.9,11,11
			s-4.9,11-11,11s-11-4.9-11-11S305.9,521,312,521z"/>
		<path id="block_00000152946456259061991800000005678069762304441512_" fill="#1B3FAA" d="M356,521c6.1,0,11,4.9,11,11
			s-4.9,11-11,11s-11-4.9-11-11S349.9,521,356,521z"/>
		<path id="block_00000018923186560547635770000003628769544627313311_" fill="#1B3FAA" d="M400,521c6.1,0,11,4.9,11,11
			s-4.9,11-11,11s-11-4.9-11-11S393.9,521,400,521z"/>
		<path id="block_00000151510425622174959390000015934874244318864010_" fill="#1B3FAA" d="M422,521c6.1,0,11,4.9,11,11
			s-4.9,11-11,11s-11-4.9-11-11S415.9,521,422,521z"/>
		<path id="block_00000077297399369673724500000004150898406711095941_" fill="#1B3FAA" d="M466,521c6.1,0,11,4.9,11,11
			s-4.9,11-11,11s-11-4.9-11-11S459.9,521,466,521z"/>
		<path id="block_00000151543977497213524470000005950690753437750146_" fill="#1B3FAA" d="M532,521c6.1,0,11,4.9,11,11
			s-4.9,11-11,11s-11-4.9-11-11S525.9,521,532,521z"/>
		<path id="block_00000070801526360446864990000006210967368909893534_" fill="#1B3FAA" d="M554,521c6.1,0,11,4.9,11,11
			s-4.9,11-11,11s-11-4.9-11-11S547.9,521,554,521z"/>
		<path id="block_00000045590928981429030450000014787949272903883945_" fill="#1B3FAA" d="M576,521c6.1,0,11,4.9,11,11
			s-4.9,11-11,11s-11-4.9-11-11S569.9,521,576,521z"/>
		<path id="block_00000155116183866457599230000005312695925937782169_" fill="#1B3FAA" d="M598,521c6.1,0,11,4.9,11,11
			s-4.9,11-11,11s-11-4.9-11-11S591.9,521,598,521z"/>
		<path id="block_00000011002655300174424140000001978343727507148192_" fill="#1B3FAA" d="M620,521c6.1,0,11,4.9,11,11
			s-4.9,11-11,11s-11-4.9-11-11S613.9,521,620,521z"/>
		<path id="block_00000037655090656125616930000016386520432378347665_" fill="#1B3FAA" d="M642,521c6.1,0,11,4.9,11,11
			s-4.9,11-11,11s-11-4.9-11-11S635.9,521,642,521z"/>
		<path id="block_00000109742159081021700060000004088992761012312992_" fill="#1B3FAA" d="M664,521c6.1,0,11,4.9,11,11
			s-4.9,11-11,11s-11-4.9-11-11S657.9,521,664,521z"/>
		<path id="block_00000054983611863231260260000008749625075382544265_" fill="#1B3FAA" d="M686,521c6.1,0,11,4.9,11,11
			s-4.9,11-11,11s-11-4.9-11-11S679.9,521,686,521z"/>
		<path id="block_00000031190193291092102600000015801198660480307103_" fill="#1B3FAA" d="M268,543c6.1,0,11,4.9,11,11
			s-4.9,11-11,11s-11-4.9-11-11S261.9,543,268,543z"/>
		<path id="block_00000004536699150019269130000006033378878807084690_" fill="#1B3FAA" d="M422,543c6.1,0,11,4.9,11,11
			s-4.9,11-11,11s-11-4.9-11-11S415.9,543,422,543z"/>
		<path id="block_00000106859046506507530930000007492596497206034084_" fill="#1B3FAA" d="M488,543c6.1,0,11,4.9,11,11
			s-4.9,11-11,11s-11-4.9-11-11S481.9,543,488,543z"/>
		<path id="block_00000034086097707406013120000007939735548006920623_" fill="#1B3FAA" d="M510,543c6.1,0,11,4.9,11,11
			s-4.9,11-11,11s-11-4.9-11-11S503.9,543,510,543z"/>
		<path id="block_00000090979524216017701160000000878946291878033553_" fill="#1B3FAA" d="M532,543c6.1,0,11,4.9,11,11
			s-4.9,11-11,11s-11-4.9-11-11S525.9,543,532,543z"/>
		<path id="block_00000056402713849901113360000006436157423923259031_" fill="#1B3FAA" d="M620,543c6.1,0,11,4.9,11,11
			s-4.9,11-11,11s-11-4.9-11-11S613.9,543,620,543z"/>
		<path id="block_00000170236355790277007870000004571526248546785193_" fill="#1B3FAA" d="M686,543c6.1,0,11,4.9,11,11
			s-4.9,11-11,11s-11-4.9-11-11S679.9,543,686,543z"/>
		<path id="block_00000017481051887183985050000014781380300204203189_" fill="#1B3FAA" d="M312,565c6.1,0,11,4.9,11,11
			s-4.9,11-11,11s-11-4.9-11-11S305.9,565,312,565z"/>
		<path id="block_00000136407845336020040500000010735815399612578688_" fill="#1B3FAA" d="M334,565c6.1,0,11,4.9,11,11
			s-4.9,11-11,11s-11-4.9-11-11S327.9,565,334,565z"/>
		<path id="block_00000067219447860921264690000010410090559843861125_" fill="#1B3FAA" d="M466,565c6.1,0,11,4.9,11,11
			s-4.9,11-11,11s-11-4.9-11-11S459.9,565,466,565z"/>
		<path id="block_00000111906946552196738590000003972337306142354326_" fill="#1B3FAA" d="M510,565c6.1,0,11,4.9,11,11
			s-4.9,11-11,11s-11-4.9-11-11S503.9,565,510,565z"/>
		<path id="block_00000027586185385592688890000015153621673781320335_" fill="#1B3FAA" d="M532,565c6.1,0,11,4.9,11,11
			s-4.9,11-11,11s-11-4.9-11-11S525.9,565,532,565z"/>
		<path id="block_00000156553092439283812380000016178429187335814321_" fill="#1B3FAA" d="M576,565c6.1,0,11,4.9,11,11
			s-4.9,11-11,11s-11-4.9-11-11S569.9,565,576,565z"/>
		<path id="block_00000095341056601024295900000007963908325332432797_" fill="#1B3FAA" d="M620,565c6.1,0,11,4.9,11,11
			s-4.9,11-11,11s-11-4.9-11-11S613.9,565,620,565z"/>
		<path id="block_00000135663836501690522200000010577455870737640109_" fill="#1B3FAA" d="M642,565c6.1,0,11,4.9,11,11
			s-4.9,11-11,11s-11-4.9-11-11S635.9,565,642,565z"/>
		<path id="block_00000028312810711515323420000007881310605788491427_" fill="#1B3FAA" d="M664,565c6.1,0,11,4.9,11,11
			s-4.9,11-11,11s-11-4.9-11-11S657.9,565,664,565z"/>
		<path id="block_00000022528190889706384080000007747896591783050383_" fill="#1B3FAA" d="M268,587c6.1,0,11,4.9,11,11
			s-4.9,11-11,11s-11-4.9-11-11S261.9,587,268,587z"/>
		<path id="block_00000155829414691217740940000010622847668091572133_" fill="#1B3FAA" d="M400,587c6.1,0,11,4.9,11,11
			s-4.9,11-11,11s-11-4.9-11-11S393.9,587,400,587z"/>
		<path id="block_00000059276299486030142970000013085893322569748408_" fill="#1B3FAA" d="M444,587c6.1,0,11,4.9,11,11
			s-4.9,11-11,11s-11-4.9-11-11S437.9,587,444,587z"/>
		<path id="block_00000178189230381408190380000007811349272816415125_" fill="#1B3FAA" d="M488,587c6.1,0,11,4.9,11,11
			s-4.9,11-11,11s-11-4.9-11-11S481.9,587,488,587z"/>
		<path id="block_00000043439064784875859020000004500383801836842639_" fill="#1B3FAA" d="M510,587c6.1,0,11,4.9,11,11
			s-4.9,11-11,11s-11-4.9-11-11S503.9,587,510,587z"/>
		<path id="block_00000026842579076752219530000002372143685591499154_" fill="#1B3FAA" d="M532,587c6.1,0,11,4.9,11,11
			s-4.9,11-11,11s-11-4.9-11-11S525.9,587,532,587z"/>
		<path id="block_00000181053551058559959540000017817084840973420932_" fill="#1B3FAA" d="M620,587c6.1,0,11,4.9,11,11
			s-4.9,11-11,11s-11-4.9-11-11S613.9,587,620,587z"/>
		<path id="block_00000118369027449303899350000016131525182127199162_" fill="#1B3FAA" d="M664,587c6.1,0,11,4.9,11,11
			s-4.9,11-11,11s-11-4.9-11-11S657.9,587,664,587z"/>
		<path id="block_00000070093599518514711750000007377270594480628899_" fill="#1B3FAA" d="M686,587c6.1,0,11,4.9,11,11
			s-4.9,11-11,11s-11-4.9-11-11S679.9,587,686,587z"/>
		<path id="block_00000149349142593092179210000009406064019065358732_" fill="#1B3FAA" d="M708,587c6.1,0,11,4.9,11,11
			s-4.9,11-11,11s-11-4.9-11-11S701.9,587,708,587z"/>
		<path id="block_00000037665376927981392570000006784404339150368904_" fill="#1B3FAA" d="M268,609c6.1,0,11,4.9,11,11
			s-4.9,11-11,11s-11-4.9-11-11S261.9,609,268,609z"/>
		<path id="block_00000181073709280300915740000006814600407720250534_" fill="#1B3FAA" d="M290,609c6.1,0,11,4.9,11,11
			s-4.9,11-11,11s-11-4.9-11-11S283.9,609,290,609z"/>
		<path id="block_00000151524737335143987340000001891813863589033113_" fill="#1B3FAA" d="M334,609c6.1,0,11,4.9,11,11
			s-4.9,11-11,11s-11-4.9-11-11S327.9,609,334,609z"/>
		<path id="block_00000045603718068756160090000000365090010188861335_" fill="#1B3FAA" d="M356,609c6.1,0,11,4.9,11,11
			s-4.9,11-11,11s-11-4.9-11-11S349.9,609,356,609z"/>
		<path id="block_00000023282307392979050610000000748927091573195419_" fill="#1B3FAA" d="M422,609c6.1,0,11,4.9,11,11
			s-4.9,11-11,11s-11-4.9-11-11S415.9,609,422,609z"/>
		<path id="block_00000050662495854832859070000012282074802594652349_" fill="#1B3FAA" d="M466,609c6.1,0,11,4.9,11,11
			s-4.9,11-11,11s-11-4.9-11-11S459.9,609,466,609z"/>
		<path id="block_00000151505298659396849890000005420231465928079023_" fill="#1B3FAA" d="M510,609c6.1,0,11,4.9,11,11
			s-4.9,11-11,11s-11-4.9-11-11S503.9,609,510,609z"/>
		<path id="block_00000158721622767682869570000000192922318184637108_" fill="#1B3FAA" d="M532,609c6.1,0,11,4.9,11,11
			s-4.9,11-11,11s-11-4.9-11-11S525.9,609,532,609z"/>
		<path id="block_00000155138705901029455980000003635942630121941157_" fill="#1B3FAA" d="M554,609c6.1,0,11,4.9,11,11
			s-4.9,11-11,11s-11-4.9-11-11S547.9,609,554,609z"/>
		<path id="block_00000176754136119439309810000001038290695519994273_" fill="#1B3FAA" d="M576,609c6.1,0,11,4.9,11,11
			s-4.9,11-11,11s-11-4.9-11-11S569.9,609,576,609z"/>
		<path id="block_00000133494101214063104220000013919741427015845258_" fill="#1B3FAA" d="M598,609c6.1,0,11,4.9,11,11
			s-4.9,11-11,11s-11-4.9-11-11S591.9,609,598,609z"/>
		<path id="block_00000177469436247974414270000016580312374440180363_" fill="#1B3FAA" d="M620,609c6.1,0,11,4.9,11,11
			s-4.9,11-11,11s-11-4.9-11-11S613.9,609,620,609z"/>
		<path id="block_00000098192951828514045380000012893945562163132295_" fill="#1B3FAA" d="M664,609c6.1,0,11,4.9,11,11
			s-4.9,11-11,11s-11-4.9-11-11S657.9,609,664,609z"/>
		<path id="block_00000115485201698595304050000013926546740211182782_" fill="#1B3FAA" d="M686,609c6.1,0,11,4.9,11,11
			s-4.9,11-11,11s-11-4.9-11-11S679.9,609,686,609z"/>
		<path id="block_00000026854078577079003490000001240927789116918202_" fill="#1B3FAA" d="M708,609c6.1,0,11,4.9,11,11
			s-4.9,11-11,11s-11-4.9-11-11S701.9,609,708,609z"/>
		<path id="block_00000008145669406602553360000005136798860201191814_" fill="#1B3FAA" d="M268,631c6.1,0,11,4.9,11,11
			s-4.9,11-11,11s-11-4.9-11-11S261.9,631,268,631z"/>
		<path id="block_00000109711715459328825370000003313613273375839420_" fill="#1B3FAA" d="M378,631c6.1,0,11,4.9,11,11
			s-4.9,11-11,11s-11-4.9-11-11S371.9,631,378,631z"/>
		<path id="block_00000125587845061938541060000015072139511523782296_" fill="#1B3FAA" d="M400,631c6.1,0,11,4.9,11,11
			s-4.9,11-11,11s-11-4.9-11-11S393.9,631,400,631z"/>
		<path id="block_00000137811008031714558690000015625921254799458957_" fill="#1B3FAA" d="M422,631c6.1,0,11,4.9,11,11
			s-4.9,11-11,11s-11-4.9-11-11S415.9,631,422,631z"/>
		<path id="block_00000168815057928713622010000005400689824156315819_" fill="#1B3FAA" d="M444,631c6.1,0,11,4.9,11,11
			s-4.9,11-11,11s-11-4.9-11-11S437.9,631,444,631z"/>
		<path id="block_00000016050003290937800280000011199070779208055189_" fill="#1B3FAA" d="M532,631c6.1,0,11,4.9,11,11
			s-4.9,11-11,11s-11-4.9-11-11S525.9,631,532,631z"/>
		<path id="block_00000044138607372741006990000018439683060920595074_" fill="#1B3FAA" d="M554,631c6.1,0,11,4.9,11,11
			s-4.9,11-11,11s-11-4.9-11-11S547.9,631,554,631z"/>
		<path id="block_00000001623284853709439640000000487782230767204799_" fill="#1B3FAA" d="M598,631c6.1,0,11,4.9,11,11
			s-4.9,11-11,11s-11-4.9-11-11S591.9,631,598,631z"/>
		<path id="block_00000158717452837668967710000015687816758481690787_" fill="#1B3FAA" d="M268,653c6.1,0,11,4.9,11,11
			s-4.9,11-11,11s-11-4.9-11-11S261.9,653,268,653z"/>
		<path id="block_00000005948066801669431370000012452424809797176237_" fill="#1B3FAA" d="M290,653c6.1,0,11,4.9,11,11
			s-4.9,11-11,11s-11-4.9-11-11S283.9,653,290,653z"/>
		<path id="block_00000119805716166658155230000016519775371465574326_" fill="#1B3FAA" d="M334,653c6.1,0,11,4.9,11,11
			s-4.9,11-11,11s-11-4.9-11-11S327.9,653,334,653z"/>
		<path id="block_00000163775412186278435830000006197835969881876667_" fill="#1B3FAA" d="M378,653c6.1,0,11,4.9,11,11
			s-4.9,11-11,11s-11-4.9-11-11S371.9,653,378,653z"/>
		<path id="block_00000081645121133220680230000016027802507825405113_" fill="#1B3FAA" d="M422,653c6.1,0,11,4.9,11,11
			s-4.9,11-11,11s-11-4.9-11-11S415.9,653,422,653z"/>
		<path id="block_00000026124766481611828580000005845380715285428403_" fill="#1B3FAA" d="M444,653c6.1,0,11,4.9,11,11
			s-4.9,11-11,11s-11-4.9-11-11S437.9,653,444,653z"/>
		<path id="block_00000115487880644806186850000012114734994119295411_" fill="#1B3FAA" d="M466,653c6.1,0,11,4.9,11,11
			s-4.9,11-11,11s-11-4.9-11-11S459.9,653,466,653z"/>
		<path id="block_00000032647634134072490730000010026195493821054097_" fill="#1B3FAA" d="M510,653c6.1,0,11,4.9,11,11
			s-4.9,11-11,11s-11-4.9-11-11S503.9,653,510,653z"/>
		<path id="block_00000153665678932520026400000008629981255031712653_" fill="#1B3FAA" d="M554,653c6.1,0,11,4.9,11,11
			s-4.9,11-11,11s-11-4.9-11-11S547.9,653,554,653z"/>
		<path id="block_00000062897146006808984340000016676687210479707286_" fill="#1B3FAA" d="M576,653c6.1,0,11,4.9,11,11
			s-4.9,11-11,11s-11-4.9-11-11S569.9,653,576,653z"/>
		<path id="block_00000099639639939451486550000002170756868026414231_" fill="#1B3FAA" d="M598,653c6.1,0,11,4.9,11,11
			s-4.9,11-11,11s-11-4.9-11-11S591.9,653,598,653z"/>
		<path id="block_00000054231630692764291640000008276933986259753895_" fill="#1B3FAA" d="M664,653c6.1,0,11,4.9,11,11
			s-4.9,11-11,11s-11-4.9-11-11S657.9,653,664,653z"/>
		<path id="block_00000142867818488675074200000015228586974182229425_" fill="#1B3FAA" d="M686,653c6.1,0,11,4.9,11,11
			s-4.9,11-11,11s-11-4.9-11-11S679.9,653,686,653z"/>
		<path id="block_00000062897582589830791130000002840918313918648230_" fill="#1B3FAA" d="M290,675c6.1,0,11,4.9,11,11
			s-4.9,11-11,11s-11-4.9-11-11S283.9,675,290,675z"/>
		<path id="block_00000179641838562901474170000013356132569236119941_" fill="#1B3FAA" d="M334,675c6.1,0,11,4.9,11,11
			s-4.9,11-11,11s-11-4.9-11-11S327.9,675,334,675z"/>
		<path id="block_00000136384258695873234130000008856375194489278356_" fill="#1B3FAA" d="M400,675c6.1,0,11,4.9,11,11
			s-4.9,11-11,11s-11-4.9-11-11S393.9,675,400,675z"/>
		<path id="block_00000036225896461210747780000002882163578969255827_" fill="#1B3FAA" d="M444,675c6.1,0,11,4.9,11,11
			s-4.9,11-11,11s-11-4.9-11-11S437.9,675,444,675z"/>
		<path id="block_00000083062078864472918570000008703101165331920303_" fill="#1B3FAA" d="M466,675c6.1,0,11,4.9,11,11
			s-4.9,11-11,11s-11-4.9-11-11S459.9,675,466,675z"/>
		<path id="block_00000150099231320936991740000001058737535134864304_" fill="#1B3FAA" d="M488,675c6.1,0,11,4.9,11,11
			s-4.9,11-11,11s-11-4.9-11-11S481.9,675,488,675z"/>
		<path id="block_00000174584175119953774710000005505675784610664339_" fill="#1B3FAA" d="M510,675c6.1,0,11,4.9,11,11
			s-4.9,11-11,11s-11-4.9-11-11S503.9,675,510,675z"/>
		<path id="block_00000142134745929391219050000003648289570352662707_" fill="#1B3FAA" d="M532,675c6.1,0,11,4.9,11,11
			s-4.9,11-11,11s-11-4.9-11-11S525.9,675,532,675z"/>
		<path id="block_00000126305066243404310560000011112890320817281177_" fill="#1B3FAA" d="M642,675c6.1,0,11,4.9,11,11
			s-4.9,11-11,11s-11-4.9-11-11S635.9,675,642,675z"/>
		<path id="block_00000025443059267378789190000015224994297723576759_" fill="#1B3FAA" d="M664,675c6.1,0,11,4.9,11,11
			s-4.9,11-11,11s-11-4.9-11-11S657.9,675,664,675z"/>
		<path id="block_00000142898143971691289020000009062886561602869643_" fill="#1B3FAA" d="M708,675c6.1,0,11,4.9,11,11
			s-4.9,11-11,11s-11-4.9-11-11S701.9,675,708,675z"/>
		<path id="block_00000059286964953419520060000017241536427081673150_" fill="#1B3FAA" d="M268,697c6.1,0,11,4.9,11,11
			s-4.9,11-11,11s-11-4.9-11-11S261.9,697,268,697z"/>
		<path id="block_00000047771757159609472270000011001444547965441185_" fill="#1B3FAA" d="M290,697c6.1,0,11,4.9,11,11
			s-4.9,11-11,11s-11-4.9-11-11S283.9,697,290,697z"/>
		<path id="block_00000156551386691093714250000014220138220727583400_" fill="#1B3FAA" d="M334,697c6.1,0,11,4.9,11,11
			s-4.9,11-11,11s-11-4.9-11-11S327.9,697,334,697z"/>
		<path id="block_00000119838839024406994450000005403639831563835020_" fill="#1B3FAA" d="M356,697c6.1,0,11,4.9,11,11
			s-4.9,11-11,11s-11-4.9-11-11S349.9,697,356,697z"/>
		<path id="block_00000034779658863489621850000004676295702858313882_" fill="#1B3FAA" d="M378,697c6.1,0,11,4.9,11,11
			s-4.9,11-11,11s-11-4.9-11-11S371.9,697,378,697z"/>
		<path id="block_00000083047650318918816740000012790766850069034928_" fill="#1B3FAA" d="M422,697c6.1,0,11,4.9,11,11
			s-4.9,11-11,11s-11-4.9-11-11S415.9,697,422,697z"/>
		<path id="block_00000124873255509945866910000012136364468438699416_" fill="#1B3FAA" d="M444,697c6.1,0,11,4.9,11,11
			s-4.9,11-11,11s-11-4.9-11-11S437.9,697,444,697z"/>
		<path id="block_00000140698545907254742140000000122858256615091388_" fill="#1B3FAA" d="M488,697c6.1,0,11,4.9,11,11
			s-4.9,11-11,11s-11-4.9-11-11S481.9,697,488,697z"/>
		<path id="block_00000033368404334291449100000013798300962938229122_" fill="#1B3FAA" d="M510,697c6.1,0,11,4.9,11,11
			s-4.9,11-11,11s-11-4.9-11-11S503.9,697,510,697z"/>
		<path id="block_00000049903503928712404860000012525904969801886598_" fill="#1B3FAA" d="M532,697c6.1,0,11,4.9,11,11
			s-4.9,11-11,11s-11-4.9-11-11S525.9,697,532,697z"/>
		<path id="block_00000052815658827278316090000006830890027848463803_" fill="#1B3FAA" d="M554,697c6.1,0,11,4.9,11,11
			s-4.9,11-11,11s-11-4.9-11-11S547.9,697,554,697z"/>
		<path id="block_00000119096944243024179860000002604827213013380773_" fill="#1B3FAA" d="M576,697c6.1,0,11,4.9,11,11
			s-4.9,11-11,11s-11-4.9-11-11S569.9,697,576,697z"/>
		<path id="block_00000018211019759611531070000011663889750269638551_" fill="#1B3FAA" d="M620,697c6.1,0,11,4.9,11,11
			s-4.9,11-11,11s-11-4.9-11-11S613.9,697,620,697z"/>
		<path id="block_00000039123408120920467410000007605745937979263656_" fill="#1B3FAA" d="M642,697c6.1,0,11,4.9,11,11
			s-4.9,11-11,11s-11-4.9-11-11S635.9,697,642,697z"/>
		<path id="block_00000114755962044162287780000005226886494604472475_" fill="#1B3FAA" d="M664,697c6.1,0,11,4.9,11,11
			s-4.9,11-11,11s-11-4.9-11-11S657.9,697,664,697z"/>
	</g>
	<g display="inline">
		<path d="M81,576v132c0,6.1,4.9,11,11,11h132c6.1,0,11-4.9,11-11V576c0-6.1-4.9-11-11-11H92C85.9,565,81,569.9,81,576z M207,697
			h-98c-3.3,0-6-2.7-6-6v-98c0-3.3,2.7-6,6-6h98c3.3,0,6,2.7,6,6v98C213,694.3,210.3,697,207,697z"/>
		<path d="M125,612v60c0,1.7,1.3,3,3,3h60c1.7,0,3-1.3,3-3v-60c0-1.7-1.3-3-3-3h-60C126.3,609,125,610.3,125,612z"/>
	</g>
	<g display="inline">
		<path d="M565,92v132c0,6.1,4.9,11,11,11h132c6.1,0,11-4.9,11-11V92c0-6.1-4.9-11-11-11H576C569.9,81,565,85.9,565,92z M691,213
			h-98c-3.3,0-6-2.7-6-6v-98c0-3.3,2.7-6,6-6h98c3.3,0,6,2.7,6,6v98C697,210.3,694.3,213,691,213z"/>
		<path d="M609,128v60c0,1.7,1.3,3,3,3h60c1.7,0,3-1.3,3-3v-60c0-1.7-1.3-3-3-3h-60C610.3,125,609,126.3,609,128z"/>
	</g>
	<g display="inline">
		<path d="M81,92v132c0,6.1,4.9,11,11,11h132c6.1,0,11-4.9,11-11V92c0-6.1-4.9-11-11-11H92C85.9,81,81,85.9,81,92z M207,213h-98
			c-3.3,0-6-2.7-6-6v-98c0-3.3,2.7-6,6-6h98c3.3,0,6,2.7,6,6v98C213,210.3,210.3,213,207,213z"/>
		<path d="M125,128v60c0,1.7,1.3,3,3,3h60c1.7,0,3-1.3,3-3v-60c0-1.7-1.3-3-3-3h-60C126.3,125,125,126.3,125,128z"/>
	</g>
	<g id="logo_-_without_subline_00000078030799989483458520000012820799134382619569_" display="inline">
		<g id="name_00000048467958203556925990000015688489231171280781_">
			<path fill="#1B3FAA" d="M319.1,453.8c-0.3,0-0.5-0.1-0.7-0.2s-0.3-0.3-0.3-0.6v-26.8c0-0.2,0.1-0.4,0.2-0.5l0.6-0.3h7
				c1.5,0,2.8,0.3,3.9,0.8c1.2,0.5,2.1,1.4,2.8,2.6c0.7,1.2,1,2.8,1,4.7v0.4c0,2-0.3,3.6-1,4.7c-0.7,1.2-1.6,2.1-2.8,2.6
				c-1.2,0.5-2.5,0.8-4,0.8h-5.9v11c0,0.3-0.1,0.5-0.3,0.6S319.3,453.8,319.1,453.8L319.1,453.8z M320.1,440.3h5.9
				c1.8,0,3.3-0.5,4.3-1.6c1-1,1.6-2.6,1.6-4.8v-0.5c0-2.1-0.5-3.7-1.6-4.7c-1-1-2.5-1.5-4.3-1.5h-5.9V440.3z M338.7,453.8
				c-0.3,0-0.5-0.1-0.7-0.3c-0.2-0.2-0.3-0.4-0.3-0.6v-28.2c0-0.3,0.1-0.5,0.3-0.6c0.2-0.1,0.4-0.2,0.7-0.2c0.3,0,0.5,0.1,0.7,0.2
				s0.3,0.3,0.3,0.6V438c0.4-0.8,1.1-1.4,2-2s1.9-0.9,3.2-0.9s2.4,0.3,3.5,1c1,0.6,1.9,1.5,2.5,2.6s1,2.3,1,3.6V453
				c0,0.3-0.1,0.5-0.3,0.6s-0.4,0.2-0.7,0.2c-0.2,0-0.4-0.1-0.6-0.2s-0.3-0.3-0.3-0.6v-10.7c0-0.9-0.2-1.8-0.7-2.6
				c-0.5-0.8-1.1-1.5-1.9-2s-1.6-0.8-2.6-0.8c-0.8,0-1.6,0.2-2.4,0.6s-1.4,1-1.9,1.8s-0.7,1.7-0.7,2.9V453c0,0.2-0.1,0.4-0.3,0.6
				C339.2,453.7,339,453.8,338.7,453.8L338.7,453.8z M363.1,454c-1.2,0-2.4-0.3-3.5-1s-2-1.6-2.6-2.6c-0.7-1.1-1-2.3-1-3.5v-4.5
				c0-1.3,0.3-2.5,1-3.5c0.6-1.1,1.5-2,2.6-2.6s2.3-1,3.5-1c1.3,0,2.5,0.3,3.6,1c1.1,0.6,1.9,1.5,2.6,2.6s1,2.3,1,3.6v4.5
				c0,1.2-0.3,2.4-1,3.5s-1.5,2-2.6,2.7C365.6,453.7,364.4,454,363.1,454z M363.1,452.2c1,0,1.9-0.3,2.6-0.8c0.8-0.5,1.4-1.2,1.9-2
				s0.7-1.7,0.7-2.6v-4.5c0-0.9-0.2-1.8-0.7-2.6c-0.5-0.8-1.1-1.5-1.9-2s-1.7-0.8-2.7-0.8s-1.9,0.3-2.6,0.8c-0.8,0.5-1.4,1.2-1.9,2
				s-0.7,1.7-0.7,2.6v4.5c0,0.9,0.2,1.8,0.7,2.6c0.5,0.8,1.1,1.5,1.9,2C361.3,452,362.2,452.2,363.1,452.2z M380.5,453.8
				c-1.9,0-3.4-0.4-4.4-1.3s-1.5-2.3-1.5-4.2v-20.9c0-0.3,0.1-0.5,0.3-0.6c0.2-0.1,0.4-0.2,0.6-0.2c0.3,0,0.5,0.1,0.7,0.2
				s0.3,0.3,0.3,0.6v8.1h5.2c0.2,0,0.4,0.1,0.5,0.2c0.1,0.2,0.2,0.4,0.2,0.6s-0.1,0.4-0.2,0.6s-0.3,0.3-0.5,0.3h-5.2v11.2
				c0,1.3,0.3,2.3,0.9,2.9s1.6,0.9,3.1,0.9h1c0.3,0,0.5,0.1,0.7,0.3c0.2,0.2,0.2,0.4,0.2,0.6s-0.1,0.4-0.2,0.6
				c-0.2,0.2-0.4,0.3-0.7,0.3h-1V453.8z M391.7,454c-1.2,0-2.4-0.3-3.5-1s-2-1.6-2.6-2.6c-0.7-1.1-1-2.3-1-3.5v-4.5
				c0-1.3,0.3-2.5,1-3.5c0.6-1.1,1.5-2,2.6-2.6s2.3-1,3.5-1c1.3,0,2.5,0.3,3.6,1c1.1,0.6,1.9,1.5,2.6,2.6s1,2.3,1,3.6v4.5
				c0,1.2-0.3,2.4-1,3.5s-1.5,2-2.6,2.7C394.2,453.7,393,454,391.7,454z M391.7,452.2c1,0,1.9-0.3,2.6-0.8c0.8-0.5,1.4-1.2,1.9-2
				s0.7-1.7,0.7-2.6v-4.5c0-0.9-0.2-1.8-0.7-2.6c-0.5-0.8-1.1-1.5-1.9-2s-1.7-0.8-2.7-0.8s-1.9,0.3-2.6,0.8c-0.8,0.5-1.4,1.2-1.9,2
				s-0.7,1.7-0.7,2.6v4.5c0,0.9,0.2,1.8,0.7,2.6c0.5,0.8,1.1,1.5,1.9,2C389.8,452,390.7,452.2,391.7,452.2z M410.4,454
				c-1.2,0-2.3-0.3-3.2-0.9s-1.6-1.3-2.1-2.1v1.9c0,0.2-0.1,0.4-0.3,0.6c-0.2,0.2-0.4,0.3-0.7,0.3c-0.3,0-0.5-0.1-0.7-0.3
				c-0.2-0.2-0.3-0.4-0.3-0.6v-28.2c0-0.3,0.1-0.5,0.3-0.6c0.2-0.1,0.4-0.2,0.7-0.2c0.3,0,0.5,0.1,0.7,0.2s0.3,0.3,0.3,0.6V438
				c0.4-0.8,1.1-1.4,2-2s1.9-0.9,3.2-0.9c1.3,0,2.4,0.3,3.5,1c1.1,0.6,1.9,1.5,2.5,2.6s1,2.3,1,3.6v4.5c0,1.2-0.3,2.4-1,3.5
				c-0.6,1.1-1.5,2-2.5,2.7S411.6,454,410.4,454L410.4,454z M410.2,452.2c0.9,0,1.8-0.3,2.6-0.8s1.4-1.2,1.9-2s0.7-1.7,0.7-2.6v-4.5
				c0-0.9-0.2-1.8-0.7-2.6s-1.1-1.5-1.9-2s-1.6-0.8-2.6-0.8c-0.8,0-1.6,0.2-2.4,0.6s-1.4,1-1.9,1.8s-0.7,1.7-0.7,2.9v5.8
				c0,0.4,0.2,0.9,0.7,1.6c0.5,0.6,1.1,1.2,1.8,1.7C408.4,452,409.3,452.2,410.2,452.2z M428.1,454c-1.2,0-2.4-0.3-3.5-1
				s-2-1.6-2.6-2.6s-1-2.3-1-3.5v-4.5c0-1.3,0.3-2.5,1-3.5c0.6-1.1,1.5-2,2.6-2.6s2.3-1,3.5-1c1.3,0,2.5,0.3,3.6,1s1.9,1.5,2.6,2.6
				s1,2.3,1,3.6v4.5c0,1.2-0.3,2.4-1,3.5s-1.5,2-2.6,2.7S429.4,454,428.1,454z M428.1,452.2c1,0,1.9-0.3,2.6-0.8
				c0.8-0.5,1.4-1.2,1.9-2s0.7-1.7,0.7-2.6v-4.5c0-0.9-0.2-1.8-0.7-2.6c-0.5-0.8-1.1-1.5-1.9-2s-1.7-0.8-2.7-0.8s-1.9,0.3-2.6,0.8
				c-0.8,0.5-1.4,1.2-1.9,2s-0.7,1.7-0.7,2.6v4.5c0,0.9,0.2,1.8,0.7,2.6c0.5,0.8,1.1,1.5,1.9,2S427.2,452.2,428.1,452.2z M446,454
				c-1.2,0-2.4-0.3-3.5-1s-2-1.6-2.6-2.6s-1-2.3-1-3.5v-4.5c0-1.3,0.3-2.5,1-3.5c0.6-1.1,1.5-2,2.6-2.6s2.3-1,3.5-1
				c1.3,0,2.5,0.3,3.6,1s1.9,1.5,2.6,2.6s1,2.3,1,3.6v4.5c0,1.2-0.3,2.4-1,3.5s-1.5,2-2.6,2.7S447.3,454,446,454z M446,452.2
				c1,0,1.9-0.3,2.6-0.8c0.8-0.5,1.4-1.2,1.9-2s0.7-1.7,0.7-2.6v-4.5c0-0.9-0.2-1.8-0.7-2.6c-0.5-0.8-1.1-1.5-1.9-2
				s-1.7-0.8-2.7-0.8s-1.9,0.3-2.6,0.8c-0.8,0.5-1.4,1.2-1.9,2s-0.7,1.7-0.7,2.6v4.5c0,0.9,0.2,1.8,0.7,2.6c0.5,0.8,1.1,1.5,1.9,2
				S445.1,452.2,446,452.2z M463.4,453.8c-1.9,0-3.4-0.4-4.4-1.3s-1.5-2.3-1.5-4.2v-20.9c0-0.3,0.1-0.5,0.3-0.6
				c0.2-0.1,0.4-0.2,0.6-0.2c0.3,0,0.5,0.1,0.7,0.2s0.3,0.3,0.3,0.6v8.1h5.2c0.2,0,0.4,0.1,0.5,0.2c0.1,0.2,0.2,0.4,0.2,0.6
				s-0.1,0.4-0.2,0.6s-0.3,0.3-0.5,0.3h-5.2v11.2c0,1.3,0.3,2.3,0.9,2.9s1.6,0.9,3.1,0.9h1c0.3,0,0.5,0.1,0.7,0.3
				c0.2,0.2,0.2,0.4,0.2,0.6s-0.1,0.4-0.2,0.6c-0.2,0.2-0.4,0.3-0.7,0.3h-1V453.8z M469.5,453.8c-0.3,0-0.5-0.1-0.7-0.3
				c-0.2-0.2-0.3-0.4-0.3-0.6v-28.2c0-0.3,0.1-0.5,0.3-0.6c0.2-0.1,0.4-0.2,0.7-0.2c0.3,0,0.5,0.1,0.7,0.2s0.3,0.3,0.3,0.6V438
				c0.4-0.8,1.1-1.4,2-2s1.9-0.9,3.2-0.9c1.3,0,2.4,0.3,3.5,1c1,0.6,1.9,1.5,2.5,2.6s1,2.3,1,3.6V453c0,0.3-0.1,0.5-0.3,0.6
				c-0.2,0.1-0.4,0.2-0.7,0.2c-0.2,0-0.4-0.1-0.6-0.2s-0.3-0.3-0.3-0.6v-10.7c0-0.9-0.2-1.8-0.7-2.6s-1.1-1.5-1.9-2
				s-1.6-0.8-2.6-0.8c-0.8,0-1.6,0.2-2.4,0.6s-1.4,1-1.9,1.8s-0.7,1.7-0.7,2.9V453c0,0.2-0.1,0.4-0.3,0.6
				C470,453.7,469.8,453.8,469.5,453.8L469.5,453.8z"/>
		</g>
		<g id="logo_00000158025457934632802520000006249272558088826020_">
			<path fill="#1B3FAA" d="M415.8,374.9c0,7.5-4.9,13.4-11.2,16.4c-6.4,3-15.5,1.2-20.5-3.9c-9.4-9.6-5.3-24.5,4.8-29.5
				c13.2-6.5,26.9,3.7,26.9,15.6L415.8,374.9L415.8,374.9z M376.2,374.6c0,4.1,1.5,8.7,3.8,11.8l2.3,2.7c7.2,7.2,19.2,8.2,27.2,2.2
				c2.8-2.1,5.5-5.2,6.9-8.5c4.7-10.8-0.3-23.2-10.7-27.7C392.1,349.3,376.2,358.7,376.2,374.6L376.2,374.6z"/>
			<path fill="#1B3FAA" d="M409.5,367.7c-2,1.8,2.1,4.2-0.4,11.2c-3.3,8.9-17,11.7-22.8,1.8c-6.1-10.3,4.3-21.6,14.2-18.6
				c1.8,0.5,2.7,0.9,4.2,1.9c1,0.7,3.1,2.7,3.4-0.1c-0.2-1.1-9.6-9.4-20.6-1.3c-2.2,1.7-4.6,5.2-5.3,9.2c-2,12.8,12.4,22.2,23.3,15
				c4.8-3.2,7.7-8.7,6.8-14.9C412,370.2,411.7,367.5,409.5,367.7L409.5,367.7z"/>
			<path fill="#1B3FAA" d="M357.5,355.4c0-3.8,2.9-5.1,6.2-5.1c2.7,0,8.6,0.3,10.9-0.2c7.3-1.6,5-10.7,11.5-10.7h22.7
				c5.8,0,4.4,9.6,11.5,10.8c6.1,1,16.9-2.5,16.9,5.2v39.5c0,6.7-7.5,5.2-13.2,5.2c-6.5,0-52.7-0.4-55,0.3l0.1,1.9
				c0.6,0.2,0.9,0.3,1.7,0.3H432c4,0,7.5-3,7.5-7.1v-40.3c0-1.9-0.8-3.3-1.6-4.6c-2.4-3.9-10.4-2.7-15.7-2.7
				c-7.7,0-5.1-10.8-13.3-10.8h-23.1c-3.5,0-5.5,2.2-6.9,4.9c-1.6,3-1.6,5.9-5.5,5.9c-5.5-0.4-7.5-0.4-11.5,0
				c-4,0.7-6.8,2.9-6.8,7.3v40.6c0,4.5,3.6,6.9,8.3,6.9c4.1,0,2.1-2.3,2.1-2.3c-2.1-0.7-3.3,0.5-5.7-1c-1.4-0.9-2.3-2-2.3-4.4V355.4
				L357.5,355.4z"/>
		</g>
	</g>
	<g id="logo_-_with_subline_00000101801709451422215480000005627195101640986542_" display="inline">
		<g id="name_00000053540738271062684190000006041168935418948002_">
			<path fill="#1B3FAA" d="M319.1,444.9c-0.3,0-0.5-0.1-0.7-0.2s-0.3-0.3-0.3-0.6v-26.8c0-0.2,0.1-0.4,0.2-0.5l0.6-0.3h7
				c1.5,0,2.8,0.3,3.9,0.8c1.2,0.5,2.1,1.4,2.8,2.6c0.7,1.2,1,2.8,1,4.7v0.4c0,2-0.3,3.6-1,4.7c-0.7,1.2-1.6,2.1-2.8,2.6
				c-1.2,0.5-2.5,0.8-4,0.8h-5.9V444c0,0.3-0.1,0.5-0.3,0.6S319.3,444.9,319.1,444.9L319.1,444.9z M320.1,431.4h5.9
				c1.8,0,3.3-0.5,4.3-1.6c1-1,1.6-2.6,1.6-4.8v-0.5c0-2.1-0.5-3.7-1.6-4.7c-1-1-2.5-1.5-4.3-1.5h-5.9V431.4z M338.7,444.9
				c-0.3,0-0.5-0.1-0.7-0.3c-0.2-0.2-0.3-0.4-0.3-0.6v-28c0-0.3,0.1-0.5,0.3-0.6c0.2-0.1,0.4-0.2,0.7-0.2c0.3,0,0.5,0.1,0.7,0.2
				s0.3,0.3,0.3,0.6v13.3c0.4-0.8,1.1-1.4,2-2s1.9-0.9,3.2-0.9s2.4,0.3,3.5,1c1,0.6,1.9,1.5,2.5,2.6s1,2.3,1,3.6v10.7
				c0,0.3-0.1,0.5-0.3,0.6s-0.4,0.2-0.7,0.2c-0.2,0-0.4-0.1-0.6-0.2s-0.3-0.3-0.3-0.6v-10.7c0-0.9-0.2-1.8-0.7-2.6
				c-0.5-0.8-1.1-1.5-1.9-2s-1.6-0.8-2.6-0.8c-0.8,0-1.6,0.2-2.4,0.6s-1.4,1-1.9,1.8s-0.7,1.7-0.7,2.9v10.7c0,0.2-0.1,0.4-0.3,0.6
				C339.2,444.9,339,444.9,338.7,444.9L338.7,444.9z M363.1,445.2c-1.2,0-2.4-0.3-3.5-1s-2-1.6-2.6-2.6c-0.7-1.1-1-2.3-1-3.5v-4.5
				c0-1.3,0.3-2.5,1-3.5c0.6-1.1,1.5-2,2.6-2.6s2.3-1,3.5-1c1.3,0,2.5,0.3,3.6,1c1.1,0.6,1.9,1.5,2.6,2.6s1,2.3,1,3.6v4.5
				c0,1.2-0.3,2.4-1,3.5s-1.5,2-2.6,2.7C365.6,444.8,364.4,445.2,363.1,445.2z M363.1,443.4c1,0,1.9-0.3,2.6-0.8
				c0.8-0.5,1.4-1.2,1.9-2s0.7-1.7,0.7-2.6v-4.5c0-0.9-0.2-1.8-0.7-2.6c-0.5-0.8-1.1-1.5-1.9-2s-1.7-0.8-2.7-0.8s-1.9,0.3-2.6,0.8
				c-0.8,0.5-1.4,1.2-1.9,2s-0.7,1.7-0.7,2.6v4.5c0,0.9,0.2,1.8,0.7,2.6c0.5,0.8,1.1,1.5,1.9,2C361.3,443.1,362.2,443.4,363.1,443.4
				z M380.5,444.9c-1.9,0-3.4-0.4-4.4-1.3s-1.5-2.3-1.5-4.2v-20.9c0-0.3,0.1-0.5,0.3-0.6c0.2-0.1,0.4-0.2,0.6-0.2
				c0.3,0,0.5,0.1,0.7,0.2s0.3,0.3,0.3,0.6v8.1h5.2c0.2,0,0.4,0.1,0.5,0.2c0.1,0.2,0.2,0.4,0.2,0.6s-0.1,0.4-0.2,0.6
				s-0.3,0.3-0.5,0.3h-5.2v11.2c0,1.3,0.3,2.3,0.9,2.9s1.6,0.9,3.1,0.9h1c0.3,0,0.5,0.1,0.7,0.3c0.2,0.2,0.2,0.4,0.2,0.6
				s-0.1,0.4-0.2,0.6c-0.2,0.2-0.4,0.3-0.7,0.3h-1V444.9z M391.7,445.2c-1.2,0-2.4-0.3-3.5-1s-2-1.6-2.6-2.6c-0.7-1.1-1-2.3-1-3.5
				v-4.5c0-1.3,0.3-2.5,1-3.5c0.6-1.1,1.5-2,2.6-2.6s2.3-1,3.5-1c1.3,0,2.5,0.3,3.6,1c1.1,0.6,1.9,1.5,2.6,2.6s1,2.3,1,3.6v4.5
				c0,1.2-0.3,2.4-1,3.5s-1.5,2-2.6,2.7C394.2,444.8,393,445.2,391.7,445.2z M391.7,443.4c1,0,1.9-0.3,2.6-0.8
				c0.8-0.5,1.4-1.2,1.9-2s0.7-1.7,0.7-2.6v-4.5c0-0.9-0.2-1.8-0.7-2.6c-0.5-0.8-1.1-1.5-1.9-2s-1.7-0.8-2.7-0.8s-1.9,0.3-2.6,0.8
				c-0.8,0.5-1.4,1.2-1.9,2s-0.7,1.7-0.7,2.6v4.5c0,0.9,0.2,1.8,0.7,2.6c0.5,0.8,1.1,1.5,1.9,2S390.7,443.4,391.7,443.4z
				 M410.4,445.2c-1.2,0-2.3-0.3-3.2-0.9s-1.6-1.3-2.1-2.1v1.9c0,0.2-0.1,0.4-0.3,0.6c-0.2,0.2-0.4,0.3-0.7,0.3
				c-0.3,0-0.5-0.1-0.7-0.3c-0.2-0.2-0.3-0.4-0.3-0.6V416c0-0.3,0.1-0.5,0.3-0.6c0.2-0.1,0.4-0.2,0.7-0.2c0.3,0,0.5,0.1,0.7,0.2
				s0.3,0.3,0.3,0.6v13.3c0.4-0.8,1.1-1.4,2-2s1.9-0.9,3.2-0.9c1.3,0,2.4,0.3,3.5,1c1.1,0.6,1.9,1.5,2.5,2.6s1,2.3,1,3.6v4.5
				c0,1.2-0.3,2.4-1,3.5c-0.6,1.1-1.5,2-2.5,2.7S411.6,445.2,410.4,445.2z M410.2,443.4c0.9,0,1.8-0.3,2.6-0.8s1.4-1.2,1.9-2
				s0.7-1.7,0.7-2.6v-4.5c0-0.9-0.2-1.8-0.7-2.6s-1.1-1.5-1.9-2s-1.6-0.8-2.6-0.8c-0.8,0-1.6,0.2-2.4,0.6s-1.4,1-1.9,1.8
				s-0.7,1.7-0.7,2.9v5.8c0,0.4,0.2,0.9,0.7,1.6c0.5,0.6,1.1,1.2,1.8,1.7C408.4,443.1,409.3,443.4,410.2,443.4z M428.1,445.2
				c-1.2,0-2.4-0.3-3.5-1s-2-1.6-2.6-2.6s-1-2.3-1-3.5v-4.5c0-1.3,0.3-2.5,1-3.5c0.6-1.1,1.5-2,2.6-2.6s2.3-1,3.5-1
				c1.3,0,2.5,0.3,3.6,1s1.9,1.5,2.6,2.6s1,2.3,1,3.6v4.5c0,1.2-0.3,2.4-1,3.5s-1.5,2-2.6,2.7S429.4,445.2,428.1,445.2z
				 M428.1,443.4c1,0,1.9-0.3,2.6-0.8c0.8-0.5,1.4-1.2,1.9-2s0.7-1.7,0.7-2.6v-4.5c0-0.9-0.2-1.8-0.7-2.6c-0.5-0.8-1.1-1.5-1.9-2
				s-1.7-0.8-2.7-0.8s-1.9,0.3-2.6,0.8c-0.8,0.5-1.4,1.2-1.9,2s-0.7,1.7-0.7,2.6v4.5c0,0.9,0.2,1.8,0.7,2.6c0.5,0.8,1.1,1.5,1.9,2
				S427.2,443.4,428.1,443.4z M446,445.2c-1.2,0-2.4-0.3-3.5-1s-2-1.6-2.6-2.6s-1-2.3-1-3.5v-4.5c0-1.3,0.3-2.5,1-3.5
				c0.6-1.1,1.5-2,2.6-2.6s2.3-1,3.5-1c1.3,0,2.5,0.3,3.6,1s1.9,1.5,2.6,2.6s1,2.3,1,3.6v4.5c0,1.2-0.3,2.4-1,3.5s-1.5,2-2.6,2.7
				S447.3,445.2,446,445.2z M446,443.4c1,0,1.9-0.3,2.6-0.8c0.8-0.5,1.4-1.2,1.9-2s0.7-1.7,0.7-2.6v-4.5c0-0.9-0.2-1.8-0.7-2.6
				c-0.5-0.8-1.1-1.5-1.9-2s-1.7-0.8-2.7-0.8s-1.9,0.3-2.6,0.8c-0.8,0.5-1.4,1.2-1.9,2s-0.7,1.7-0.7,2.6v4.5c0,0.9,0.2,1.8,0.7,2.6
				c0.5,0.8,1.1,1.5,1.9,2S445.1,443.4,446,443.4z M463.4,444.9c-1.9,0-3.4-0.4-4.4-1.3s-1.5-2.3-1.5-4.2v-20.9
				c0-0.3,0.1-0.5,0.3-0.6c0.2-0.1,0.4-0.2,0.6-0.2c0.3,0,0.5,0.1,0.7,0.2s0.3,0.3,0.3,0.6v8.1h5.2c0.2,0,0.4,0.1,0.5,0.2
				c0.1,0.2,0.2,0.4,0.2,0.6s-0.1,0.4-0.2,0.6s-0.3,0.3-0.5,0.3h-5.2v11.2c0,1.3,0.3,2.3,0.9,2.9s1.6,0.9,3.1,0.9h1
				c0.3,0,0.5,0.1,0.7,0.3c0.2,0.2,0.2,0.4,0.2,0.6s-0.1,0.4-0.2,0.6c-0.2,0.2-0.4,0.3-0.7,0.3h-1V444.9z M469.5,444.9
				c-0.3,0-0.5-0.1-0.7-0.3c-0.2-0.2-0.3-0.4-0.3-0.6v-28c0-0.3,0.1-0.5,0.3-0.6c0.2-0.1,0.4-0.2,0.7-0.2c0.3,0,0.5,0.1,0.7,0.2
				s0.3,0.3,0.3,0.6v13.3c0.4-0.8,1.1-1.4,2-2s1.9-0.9,3.2-0.9c1.3,0,2.4,0.3,3.5,1c1,0.6,1.9,1.5,2.5,2.6s1,2.3,1,3.6v10.7
				c0,0.3-0.1,0.5-0.3,0.6c-0.2,0.1-0.4,0.2-0.7,0.2c-0.2,0-0.4-0.1-0.6-0.2s-0.3-0.3-0.3-0.6v-10.7c0-0.9-0.2-1.8-0.7-2.6
				s-1.1-1.5-1.9-2s-1.6-0.8-2.6-0.8c-0.8,0-1.6,0.2-2.4,0.6s-1.4,1-1.9,1.8s-0.7,1.7-0.7,2.9v10.7c0,0.2-0.1,0.4-0.3,0.6
				C470,444.9,469.8,444.9,469.5,444.9L469.5,444.9z"/>
		</g>
		<g id="subline_00000144296161538247824600000008785537679096775327_">
			<path fill="#1B3FAA" d="M335.2,467.9c-0.2,0-0.3,0-0.4-0.1l-0.3-0.3l-2.7-7.1c0-0.1,0-0.1-0.1-0.2s0-0.1,0-0.1
				c0-0.2,0.1-0.3,0.2-0.4s0.3-0.2,0.5-0.3c0.2-0.1,0.4-0.1,0.5-0.1s0.2,0,0.3,0.1s0.2,0.1,0.2,0.3l1.9,5.4l1.5-4.8
				c0.1-0.2,0.1-0.3,0.3-0.3c0.1,0,0.2-0.1,0.4-0.1s0.3,0,0.4,0.1c0.1,0,0.2,0.2,0.3,0.3l1.5,4.9l2-5.5c0.1-0.2,0.3-0.3,0.5-0.3
				s0.3,0,0.5,0.1s0.3,0.2,0.5,0.3c0.1,0.1,0.2,0.3,0.2,0.4v0.1c0,0.1,0,0.1-0.1,0.1l-2.7,7.1c0,0.1-0.1,0.2-0.3,0.3
				c-0.1,0.1-0.3,0.1-0.4,0.1c-0.2,0-0.3,0-0.5-0.1c-0.1-0.1-0.2-0.1-0.3-0.3l-1.5-4.5l-1.5,4.5c0,0.1-0.1,0.2-0.3,0.3
				C335.6,467.8,335.4,467.9,335.2,467.9z M348.2,467.8c-0.8,0-1.5-0.1-2.1-0.4s-1.1-0.7-1.4-1.2c-0.4-0.5-0.5-1.1-0.5-1.8v-1.7
				c0-0.6,0.2-1.2,0.5-1.7s0.8-0.9,1.3-1.2c0.5-0.3,1.2-0.5,1.8-0.5c0.6,0,1.2,0.1,1.7,0.4s0.9,0.7,1.3,1.1c0.3,0.5,0.5,1,0.5,1.7
				c0,0.5-0.1,0.8-0.2,1c-0.2,0.2-0.4,0.3-0.6,0.4c-0.2,0-0.5,0.1-0.8,0.1H346v0.4c0,0.6,0.2,1,0.6,1.4c0.4,0.3,1,0.5,1.6,0.5
				c0.4,0,0.7-0.1,1-0.2s0.5-0.2,0.6-0.3c0.2-0.1,0.3-0.2,0.5-0.2s0.3,0,0.4,0.1s0.2,0.2,0.2,0.3c0.1,0.1,0.1,0.2,0.1,0.4
				s-0.1,0.4-0.4,0.6c-0.2,0.2-0.6,0.4-1,0.5C349.3,467.8,348.8,467.8,348.2,467.8L348.2,467.8z M345.9,462.9h2.9
				c0.3,0,0.4,0,0.5-0.1s0.1-0.2,0.1-0.4c0-0.3-0.1-0.6-0.2-0.8c-0.2-0.3-0.4-0.5-0.6-0.6c-0.3-0.1-0.6-0.2-0.9-0.2
				s-0.6,0.1-0.9,0.2s-0.5,0.3-0.6,0.6c-0.2,0.2-0.2,0.5-0.2,0.9L345.9,462.9L345.9,462.9z M357.3,467.7c-0.3,0-0.5-0.1-0.7-0.2
				s-0.3-0.3-0.3-0.4v-12c0-0.2,0.1-0.3,0.3-0.4c0.2-0.1,0.4-0.2,0.7-0.2c0.3,0,0.5,0.1,0.7,0.2s0.3,0.3,0.3,0.4v12
				c0,0.2-0.1,0.3-0.3,0.4C357.8,467.6,357.6,467.7,357.3,467.7z M363.6,467.8c-0.6,0-1.2-0.2-1.8-0.5c-0.5-0.3-1-0.8-1.3-1.3
				s-0.5-1.1-0.5-1.7v-1.6c0-0.6,0.2-1.2,0.5-1.7s0.8-0.9,1.3-1.3c0.6-0.3,1.2-0.5,1.8-0.5s1.3,0.2,1.8,0.5s1,0.7,1.3,1.2
				s0.5,1.1,0.5,1.7v1.6c0,0.6-0.2,1.2-0.5,1.7s-0.8,1-1.3,1.3C364.8,467.7,364.2,467.8,363.6,467.8L363.6,467.8z M363.6,466.2
				c0.3,0,0.6-0.1,0.9-0.3c0.3-0.2,0.5-0.4,0.6-0.7c0.2-0.3,0.2-0.6,0.2-0.9v-1.6c0-0.3-0.1-0.6-0.2-0.9c-0.2-0.3-0.4-0.5-0.6-0.7
				c-0.3-0.2-0.6-0.3-0.9-0.3s-0.6,0.1-0.9,0.3c-0.3,0.2-0.5,0.4-0.6,0.7c-0.2,0.3-0.2,0.6-0.2,0.9v1.6c0,0.3,0.1,0.6,0.2,0.9
				c0.2,0.3,0.4,0.5,0.6,0.7C363,466.1,363.3,466.2,363.6,466.2z M371.8,467.9c-0.2,0-0.4,0-0.5-0.1c-0.2-0.1-0.3-0.2-0.3-0.3
				l-2.9-7.1v-0.3c0-0.2,0.1-0.3,0.2-0.4s0.3-0.2,0.5-0.3c0.2-0.1,0.4-0.1,0.5-0.1s0.2,0,0.3,0.1s0.2,0.1,0.2,0.3l2.1,5.5l2.1-5.5
				c0-0.1,0.1-0.2,0.2-0.3s0.2-0.1,0.4-0.1c0.1,0,0.3,0,0.5,0.1s0.4,0.2,0.5,0.3c0.1,0.1,0.2,0.3,0.2,0.4v0.2c0,0,0,0.1-0.1,0.1
				l-2.9,7.1l-0.3,0.3C372.2,467.8,372,467.9,371.8,467.9L371.8,467.9z M380.5,467.8c-0.8,0-1.5-0.1-2.1-0.4s-1.1-0.7-1.4-1.2
				c-0.4-0.5-0.5-1.1-0.5-1.8v-1.7c0-0.6,0.2-1.2,0.5-1.7s0.8-0.9,1.3-1.2c0.5-0.3,1.2-0.5,1.8-0.5c0.6,0,1.2,0.1,1.7,0.4
				s0.9,0.7,1.3,1.1c0.3,0.5,0.5,1,0.5,1.7c0,0.5-0.1,0.8-0.2,1c-0.2,0.2-0.4,0.3-0.6,0.4c-0.2,0-0.5,0.1-0.8,0.1h-3.7v0.4
				c0,0.6,0.2,1,0.6,1.4c0.4,0.3,1,0.5,1.6,0.5c0.4,0,0.7-0.1,1-0.2s0.5-0.2,0.6-0.3c0.2-0.1,0.3-0.2,0.5-0.2s0.3,0,0.4,0.1
				s0.2,0.2,0.2,0.3c0.1,0.1,0.1,0.2,0.1,0.4s-0.1,0.4-0.4,0.6c-0.2,0.2-0.6,0.4-1,0.5C381.6,467.8,381.1,467.8,380.5,467.8
				L380.5,467.8z M378.2,462.9h2.9c0.3,0,0.4,0,0.5-0.1s0.1-0.2,0.1-0.4c0-0.3-0.1-0.6-0.2-0.8c-0.2-0.3-0.4-0.5-0.6-0.6
				c-0.3-0.1-0.6-0.2-0.9-0.2s-0.6,0.1-0.9,0.2s-0.5,0.3-0.6,0.6c-0.2,0.2-0.2,0.5-0.2,0.9L378.2,462.9L378.2,462.9z M391.8,467.8
				c-0.6,0-1.2-0.2-1.8-0.5c-0.5-0.3-1-0.8-1.3-1.3s-0.5-1.1-0.5-1.7v-1.6c0-0.6,0.2-1.2,0.5-1.7s0.8-0.9,1.3-1.3
				c0.6-0.3,1.2-0.5,1.8-0.5s1.3,0.2,1.8,0.5s1,0.7,1.3,1.2s0.5,1.1,0.5,1.7v1.6c0,0.6-0.2,1.2-0.5,1.7s-0.8,1-1.3,1.3
				C393.1,467.7,392.5,467.8,391.8,467.8L391.8,467.8z M391.8,466.2c0.3,0,0.6-0.1,0.9-0.3c0.3-0.2,0.5-0.4,0.6-0.7
				c0.2-0.3,0.2-0.6,0.2-0.9v-1.6c0-0.3-0.1-0.6-0.2-0.9c-0.2-0.3-0.4-0.5-0.6-0.7c-0.3-0.2-0.6-0.3-0.9-0.3s-0.6,0.1-0.9,0.3
				c-0.3,0.2-0.5,0.4-0.6,0.7c-0.2,0.3-0.2,0.6-0.2,0.9v1.6c0,0.3,0.1,0.6,0.2,0.9c0.2,0.3,0.4,0.5,0.6,0.7
				C391.2,466.1,391.5,466.2,391.8,466.2z M397.9,471.6c-0.3,0-0.5-0.1-0.6-0.2c-0.2-0.1-0.3-0.3-0.3-0.4v-11c0-0.2,0.1-0.3,0.3-0.4
				c0.2-0.1,0.4-0.2,0.6-0.2s0.4,0.1,0.6,0.2s0.2,0.3,0.2,0.4v0.6c0.2-0.3,0.5-0.6,0.9-0.9s0.9-0.4,1.4-0.4c0.6,0,1.1,0.2,1.6,0.5
				s0.9,0.7,1.1,1.2c0.3,0.5,0.4,1.1,0.4,1.7v1.6c0,0.6-0.1,1.2-0.4,1.7s-0.7,1-1.1,1.3c-0.5,0.3-1,0.5-1.5,0.5s-1-0.1-1.4-0.4
				s-0.7-0.6-0.9-1v4.5c0,0.2-0.1,0.3-0.3,0.4C398.4,471.6,398.2,471.6,397.9,471.6L397.9,471.6z M400.7,466.2
				c0.3,0,0.6-0.1,0.9-0.3c0.3-0.2,0.5-0.4,0.7-0.7c0.2-0.3,0.3-0.6,0.3-0.9v-1.6c0-0.3-0.1-0.6-0.2-0.9c-0.2-0.3-0.4-0.5-0.7-0.7
				c-0.3-0.2-0.6-0.3-0.9-0.3s-0.6,0.1-0.8,0.2c-0.3,0.1-0.5,0.4-0.7,0.6s-0.3,0.6-0.3,1v2c0,0.1,0.1,0.3,0.2,0.6l0.6,0.6
				C400,466.1,400.3,466.2,400.7,466.2L400.7,466.2z M409.6,467.8c-0.8,0-1.5-0.1-2.1-0.4s-1.1-0.7-1.4-1.2s-0.5-1.1-0.5-1.8v-1.7
				c0-0.6,0.2-1.2,0.5-1.7s0.8-0.9,1.3-1.2c0.5-0.3,1.2-0.5,1.8-0.5c0.6,0,1.2,0.1,1.7,0.4s0.9,0.7,1.3,1.1c0.3,0.5,0.5,1,0.5,1.7
				c0,0.5-0.1,0.8-0.2,1c-0.2,0.2-0.4,0.3-0.6,0.4c-0.2,0-0.5,0.1-0.8,0.1h-3.7v0.4c0,0.6,0.2,1,0.6,1.4s1,0.5,1.6,0.5
				c0.4,0,0.7-0.1,1-0.2s0.5-0.2,0.6-0.3c0.2-0.1,0.3-0.2,0.5-0.2s0.3,0,0.4,0.1s0.2,0.2,0.2,0.3c0.1,0.1,0.1,0.2,0.1,0.4
				s-0.1,0.4-0.4,0.6s-0.6,0.4-1,0.5C410.7,467.8,410.2,467.8,409.6,467.8L409.6,467.8z M407.4,462.9h2.9c0.3,0,0.4,0,0.5-0.1
				s0.1-0.2,0.1-0.4c0-0.3-0.1-0.6-0.2-0.8c-0.2-0.3-0.4-0.5-0.6-0.6c-0.3-0.1-0.6-0.2-0.9-0.2s-0.6,0.1-0.9,0.2s-0.5,0.3-0.6,0.6
				s-0.2,0.5-0.2,0.9L407.4,462.9L407.4,462.9z M415.1,467.7c-0.3,0-0.5-0.1-0.7-0.2s-0.3-0.3-0.3-0.4V460c0-0.2,0.1-0.3,0.3-0.4
				c0.2-0.1,0.4-0.2,0.7-0.2c0.2,0,0.4,0.1,0.6,0.2s0.2,0.3,0.2,0.4v0.6c0.2-0.3,0.5-0.6,0.9-0.9s0.9-0.4,1.5-0.4
				c0.5,0,1.1,0.2,1.5,0.5c0.5,0.3,0.8,0.7,1.1,1.2c0.3,0.5,0.4,1.1,0.4,1.7v4.3c0,0.2-0.1,0.3-0.3,0.5c-0.2,0.1-0.4,0.2-0.6,0.2
				s-0.4-0.1-0.6-0.2s-0.3-0.3-0.3-0.5v-4.3c0-0.3-0.1-0.6-0.2-0.9c-0.2-0.3-0.4-0.5-0.6-0.7c-0.3-0.2-0.6-0.3-0.9-0.3
				s-0.5,0.1-0.8,0.2s-0.5,0.4-0.6,0.6c-0.2,0.3-0.2,0.6-0.2,1v4.3c0,0.2-0.1,0.3-0.3,0.4S415.4,467.7,415.1,467.7L415.1,467.7z
				 M425.7,467.8c-0.6,0-1.1-0.1-1.5-0.2c-0.5-0.1-0.8-0.3-1.1-0.5s-0.4-0.4-0.4-0.7c0-0.1,0-0.2,0.1-0.3c0.1-0.1,0.1-0.2,0.2-0.3
				c0.1-0.1,0.2-0.1,0.3-0.1c0.2,0,0.3,0.1,0.5,0.2s0.4,0.3,0.7,0.4c0.3,0.1,0.7,0.2,1.2,0.2c0.6,0,1-0.1,1.2-0.3
				c0.2-0.2,0.3-0.4,0.3-0.6c0-0.3-0.1-0.5-0.3-0.7s-0.5-0.3-0.8-0.4s-0.7-0.2-1-0.3c-0.4-0.1-0.7-0.2-1-0.4
				c-0.3-0.2-0.6-0.4-0.8-0.7c-0.2-0.3-0.3-0.7-0.3-1.2c0-0.4,0.1-0.8,0.3-1.2s0.5-0.7,1-1s1-0.4,1.8-0.4c0.4,0,0.9,0,1.3,0.1
				s0.7,0.2,1,0.4s0.4,0.3,0.4,0.5c0,0.1,0,0.2-0.1,0.3c-0.1,0.1-0.1,0.3-0.2,0.4s-0.2,0.2-0.4,0.2c-0.1,0-0.3,0-0.4-0.1l-0.6-0.3
				c-0.2-0.1-0.5-0.1-0.9-0.1c-0.3,0-0.6,0.1-0.8,0.2c-0.2,0.1-0.4,0.2-0.4,0.4c-0.1,0.2-0.1,0.3-0.1,0.5c0,0.3,0.1,0.5,0.3,0.6
				c0.2,0.1,0.5,0.3,0.8,0.4s0.7,0.2,1,0.3c0.4,0.1,0.7,0.2,1,0.4c0.3,0.2,0.6,0.4,0.8,0.8c0.2,0.3,0.3,0.7,0.3,1.3
				c0,0.7-0.3,1.3-0.8,1.8C427.4,467.6,426.7,467.8,425.7,467.8L425.7,467.8z M433.5,467.8c-0.6,0-1.2-0.2-1.8-0.5
				c-0.5-0.3-1-0.8-1.3-1.3s-0.5-1.1-0.5-1.7v-1.6c0-0.6,0.2-1.2,0.5-1.7s0.8-0.9,1.3-1.3c0.6-0.3,1.2-0.5,1.8-0.5s1.3,0.2,1.8,0.5
				s1,0.7,1.3,1.2s0.5,1.1,0.5,1.7v1.6c0,0.6-0.2,1.2-0.5,1.7s-0.8,1-1.3,1.3C434.8,467.7,434.2,467.8,433.5,467.8L433.5,467.8z
				 M433.6,466.2c0.3,0,0.6-0.1,0.9-0.3c0.3-0.2,0.5-0.4,0.6-0.7c0.2-0.3,0.2-0.6,0.2-0.9v-1.6c0-0.3-0.1-0.6-0.2-0.9
				c-0.2-0.3-0.4-0.5-0.6-0.7c-0.3-0.2-0.6-0.3-0.9-0.3s-0.6,0.1-0.9,0.3c-0.3,0.2-0.5,0.4-0.6,0.7c-0.2,0.3-0.2,0.6-0.2,0.9v1.6
				c0,0.3,0.1,0.6,0.2,0.9c0.2,0.3,0.4,0.5,0.6,0.7S433.2,466.2,433.6,466.2z M442.3,467.8c-0.7,0-1.3-0.2-1.8-0.5
				c-0.6-0.3-1-0.7-1.3-1.3c-0.3-0.5-0.5-1.1-0.5-1.7V460c0-0.2,0.1-0.3,0.3-0.4c0.2-0.1,0.4-0.2,0.6-0.2c0.3,0,0.5,0.1,0.7,0.2
				s0.3,0.3,0.3,0.4v4.4c0,0.3,0.1,0.6,0.2,0.9c0.2,0.3,0.4,0.5,0.6,0.7s0.6,0.3,0.9,0.3s0.6-0.1,0.9-0.3c0.3-0.2,0.5-0.4,0.6-0.7
				c0.2-0.3,0.2-0.6,0.2-0.9V460c0-0.2,0.1-0.3,0.3-0.4c0.2-0.1,0.4-0.2,0.6-0.2c0.3,0,0.5,0.1,0.7,0.2s0.3,0.3,0.3,0.4v4.4
				c0,0.6-0.2,1.2-0.5,1.7s-0.8,0.9-1.3,1.3C443.6,467.7,443,467.8,442.3,467.8L442.3,467.8z M448.6,467.7c-0.3,0-0.5-0.1-0.6-0.2
				s-0.3-0.3-0.3-0.4V460c0-0.2,0.1-0.3,0.3-0.4c0.2-0.1,0.4-0.2,0.6-0.2s0.4,0.1,0.6,0.2s0.2,0.3,0.2,0.4v0.8
				c0.1-0.2,0.3-0.5,0.5-0.7s0.5-0.4,0.8-0.6c0.3-0.1,0.6-0.2,0.9-0.2h0.6c0.2,0,0.4,0.1,0.5,0.2c0.1,0.2,0.2,0.3,0.2,0.6
				s-0.1,0.4-0.2,0.6s-0.3,0.2-0.5,0.2h-0.6c-0.3,0-0.7,0.1-1,0.3c-0.3,0.2-0.6,0.5-0.8,0.9s-0.3,0.8-0.3,1.4v3.6
				c0,0.2-0.1,0.3-0.3,0.4S448.9,467.7,448.6,467.7L448.6,467.7z M457.1,467.8c-0.8,0-1.5-0.2-2.1-0.5c-0.5-0.3-0.9-0.7-1.2-1.2
				c-0.3-0.5-0.4-1.1-0.4-1.8v-1.6c0-0.7,0.1-1.2,0.4-1.8c0.3-0.5,0.7-0.9,1.2-1.3c0.5-0.3,1.2-0.5,2-0.5c0.5,0,1,0.1,1.4,0.2
				s0.7,0.3,0.9,0.5s0.3,0.4,0.3,0.6c0,0.1,0,0.2-0.1,0.4c-0.1,0.1-0.2,0.3-0.3,0.4c-0.1,0.1-0.2,0.1-0.4,0.1c-0.1,0-0.2,0-0.4-0.1
				c-0.1-0.1-0.3-0.2-0.5-0.3c-0.2-0.1-0.5-0.1-0.9-0.1c-0.7,0-1.1,0.2-1.5,0.5c-0.3,0.3-0.5,0.8-0.5,1.4v1.6c0,0.6,0.2,1,0.5,1.4
				c0.3,0.3,0.8,0.5,1.5,0.5c0.4,0,0.7,0,0.9-0.1c0.2-0.1,0.4-0.2,0.5-0.3c0.1-0.1,0.3-0.1,0.4-0.1c0.2,0,0.3,0,0.4,0.1l0.3,0.3
				c0.1,0.1,0.1,0.3,0.1,0.4c0,0.2-0.1,0.4-0.4,0.6s-0.6,0.4-1,0.5S457.6,467.8,457.1,467.8L457.1,467.8z M464.8,467.8
				c-0.8,0-1.5-0.1-2.1-0.4s-1.1-0.7-1.4-1.2s-0.5-1.1-0.5-1.8v-1.7c0-0.6,0.2-1.2,0.5-1.7s0.8-0.9,1.3-1.2c0.5-0.3,1.2-0.5,1.8-0.5
				c0.6,0,1.2,0.1,1.7,0.4s0.9,0.7,1.3,1.1c0.3,0.5,0.5,1,0.5,1.7c0,0.5-0.1,0.8-0.2,1c-0.2,0.2-0.4,0.3-0.6,0.4
				c-0.2,0-0.5,0.1-0.8,0.1h-3.7v0.4c0,0.6,0.2,1,0.6,1.4s1,0.5,1.6,0.5c0.4,0,0.7-0.1,1-0.2s0.5-0.2,0.6-0.3
				c0.2-0.1,0.3-0.2,0.5-0.2s0.3,0,0.4,0.1s0.2,0.2,0.2,0.3c0.1,0.1,0.1,0.2,0.1,0.4s-0.1,0.4-0.4,0.6s-0.6,0.4-1,0.5
				C465.9,467.8,465.4,467.8,464.8,467.8L464.8,467.8z M462.6,462.9h2.9c0.3,0,0.4,0,0.5-0.1s0.1-0.2,0.1-0.4c0-0.3-0.1-0.6-0.2-0.8
				c-0.2-0.3-0.4-0.5-0.6-0.6c-0.3-0.1-0.6-0.2-0.9-0.2s-0.6,0.1-0.9,0.2s-0.5,0.3-0.6,0.6s-0.2,0.5-0.2,0.9L462.6,462.9
				L462.6,462.9z"/>
		</g>
		<g id="logo_00000095324975915025814500000017264865008020836783_">
			<path fill="#1B3FAA" d="M415.8,366.1c0,7.5-4.9,13.4-11.2,16.4c-6.4,3-15.5,1.2-20.5-3.9c-9.4-9.6-5.3-24.5,4.8-29.5
				c13.2-6.5,26.9,3.7,26.9,15.6L415.8,366.1L415.8,366.1z M376.2,365.8c0,4.1,1.5,8.7,3.8,11.8l2.3,2.7c7.2,7.2,19.2,8.2,27.2,2.2
				c2.8-2.1,5.5-5.2,6.9-8.5c4.7-10.8-0.3-23.2-10.7-27.7C392.1,340.5,376.2,349.8,376.2,365.8L376.2,365.8z"/>
			<path fill="#1B3FAA" d="M409.5,358.9c-2,1.8,2.1,4.2-0.4,11.2c-3.3,8.9-17,11.7-22.8,1.8c-6.1-10.3,4.3-21.6,14.2-18.6
				c1.8,0.5,2.7,0.9,4.2,1.9c1,0.7,3.1,2.7,3.4-0.1c-0.2-1.1-9.6-9.4-20.6-1.3c-2.2,1.7-4.6,5.2-5.3,9.2c-2,12.8,12.4,22.2,23.3,15
				c4.8-3.2,7.7-8.7,6.8-14.9C412,361.4,411.7,358.7,409.5,358.9L409.5,358.9z"/>
			<path fill="#1B3FAA" d="M357.5,346.6c0-3.8,2.9-5.1,6.2-5.1c2.7,0,8.6,0.3,10.9-0.2c7.3-1.6,5-10.7,11.5-10.7h22.7
				c5.8,0,4.4,9.6,11.5,10.8c6.1,1,16.9-2.5,16.9,5.2V386c0,6.7-7.5,5.2-13.2,5.2c-6.5,0-52.7-0.4-55,0.3l0.1,1.9
				c0.6,0.2,0.9,0.3,1.7,0.3H432c4,0,7.5-3,7.5-7.1v-40.3c0-1.9-0.8-3.3-1.6-4.6c-2.4-3.9-10.4-2.7-15.7-2.7
				c-7.7,0-5.1-10.8-13.3-10.8h-23.1c-3.5,0-5.5,2.2-6.9,4.9c-1.6,3-1.6,5.9-5.5,5.9c-5.5-0.4-7.5-0.4-11.5,0
				c-4,0.7-6.8,2.9-6.8,7.3v40.6c0,4.5,3.6,6.9,8.3,6.9c4.1,0,2.1-2.3,2.1-2.3c-2.1-0.7-3.3,0.5-5.7-1c-1.4-0.9-2.3-2-2.3-4.4V346.6
				L357.5,346.6z"/>
		</g>
	</g>
</g>
<g id="raute_00000082354923359170575670000000966530218428327563_" display="none">

		<path id="raute_00000147189719879856747980000012881715159250503069_" display="inline" opacity="0.22" fill="none" stroke="#1B3FAA" stroke-width="15" stroke-miterlimit="3.8826" enable-background="new    " d="
		M429.7,77.5l293.5,292.6c15.7,15.6,15.7,41,0,56.6L426.8,722.5c-15.6,15.6-40.9,15.6-56.5,0L76.8,429.8c-15.7-15.6-15.7-41,0-56.6
		L373.2,77.5C388.8,61.9,414.1,61.9,429.7,77.5z"/>

		<path id="raute" display="inline" opacity="0.22" fill="none" stroke="#1B3FAA" stroke-width="15" stroke-miterlimit="3.8826" enable-background="new    " d="
		M407.1,76.2l313.2,271.5c16.7,14.5,18.5,39.8,4,56.5l-275,315.6c-14.5,16.6-39.7,18.4-56.4,3.9L79.7,452.3
		c-16.7-14.5-18.5-39.8-4-56.5l275-315.6C365.3,63.5,390.5,61.8,407.1,76.2L407.1,76.2z"/>
</g>
<path id="circle01" display="none" fill-rule="evenodd" clip-rule="evenodd" fill="#1B3FAA" d="M664.4,407.6
	c-9.2,106.8-69.9,192.6-160.7,235.5c-90.9,43-262.5,15.2-334-58c-134.3-137.6-34.6-349.9,110-421c188.8-92.7,405.6-0.2,391.1,169.3
	L664.4,407.6L664.4,407.6z M100,403.7c0,59.4,21.7,123.9,54.4,169.2l32.5,39.3c103.5,103,273.3,118.2,388.9,31.3
	c40.6-30.5,78.7-74.6,98.9-121.3c67.1-155.3-4.9-332.7-152.5-396.5C326.4,40.9,100,174.9,100,403.7z"/>
<path id="circle02_00000017494072356320447400000011559743178651202714_" display="none" fill-rule="evenodd" clip-rule="evenodd" fill="#1B3FAA" d="
	M156,266.4c15.3,8.9-68,92.8-17.9,231.6c25.5,70.6,90.8,138.7,167.4,164c116.1,38.3,262.8-2.4,331.9-120.3
	c64.2-109.5,41-249.6-36.3-335.7c-67.1-74.6-178.2-105.7-269.3-77.6c-35.1,10.8-64.8,30.6-93.5,51c-18.9,13.5-26.5,37.1-54.8,21
	c-10-10.7,190.9-193.4,406.3-32.6c44.3,33.1,91.5,101.7,104.5,183.5c40.4,254.1-244.6,439.1-459.2,297.9
	c-94.9-62.4-147.6-173.5-129.9-295.6C110.5,316.7,130.6,251.8,156,266.4L156,266.4z"/>
<path id="circle03" display="none" fill="#1B3FAA" d="M400,100c-165.7,0-300,134.3-300,300s134.3,300,300,300s300-134.3,300-300
	S565.7,100,400,100z M400,665c-146.4,0-265-118.6-265-265s118.6-265,265-265s265,118.6,265,265S546.4,665,400,665z"/>
<g id="logo_-_without_subline" display="none">
	<g id="name_00000111893938946939609130000014809786252466533001_" display="inline">
		<path fill="#1B3FAA" d="M233.5,510.7c-0.5,0-1-0.1-1.4-0.4s-0.6-0.7-0.6-1.2v-55.2c0-0.4,0.2-0.8,0.5-1.1c0.3-0.3,0.7-0.5,1.3-0.5
			h14.5c3,0,5.7,0.5,8.1,1.6s4.3,2.9,5.8,5.3c1.4,2.5,2.1,5.7,2.1,9.8v0.9c0,4.1-0.7,7.3-2.1,9.8s-3.3,4.2-5.8,5.4
			c-2.5,1.1-5.2,1.7-8.2,1.7h-12.2V509c0,0.5-0.2,0.9-0.6,1.2C234.5,510.5,234,510.7,233.5,510.7L233.5,510.7z M235.5,482.9h12.2
			c3.8,0,6.7-1.1,8.9-3.2c2.1-2.1,3.2-5.4,3.2-9.8v-1c0-4.4-1.1-7.6-3.2-9.7s-5.1-3.2-8.9-3.2h-12.2L235.5,482.9L235.5,482.9z
			 M273.9,510.7c-0.5,0-1-0.2-1.4-0.5s-0.6-0.7-0.6-1.2v-57.9c0-0.5,0.2-0.9,0.6-1.2c0.4-0.3,0.8-0.4,1.4-0.4s1.1,0.1,1.4,0.4
			c0.4,0.3,0.6,0.7,0.6,1.2v27.4c0.9-1.5,2.3-2.9,4-4.2c1.8-1.3,4-1.9,6.6-1.9s5,0.7,7.2,2s3.9,3.1,5.2,5.3c1.3,2.2,2,4.7,2,7.4V509
			c0,0.5-0.2,0.9-0.6,1.2c-0.4,0.3-0.9,0.4-1.4,0.4c-0.4,0-0.9-0.1-1.3-0.4s-0.6-0.7-0.6-1.2v-21.9c0-1.9-0.5-3.6-1.5-5.3
			c-1-1.7-2.3-3-3.9-4.1s-3.4-1.6-5.4-1.6c-1.7,0-3.3,0.4-4.9,1.3s-2.9,2.1-3.9,3.8c-1,1.6-1.5,3.6-1.5,5.9V509
			c0,0.4-0.2,0.8-0.6,1.2C275,510.5,274.5,510.7,273.9,510.7L273.9,510.7z M324.2,511.1c-2.6,0-5-0.7-7.2-2.1s-4-3.2-5.4-5.4
			c-1.4-2.2-2-4.7-2-7.3V487c0-2.6,0.7-5,2-7.3c1.3-2.2,3.1-4,5.4-5.4c2.2-1.3,4.7-2,7.3-2c2.7,0,5.1,0.7,7.3,2s4,3.1,5.4,5.3
			c1.4,2.2,2,4.6,2,7.4v9.3c0,2.6-0.7,5-2,7.2c-1.4,2.3-3.1,4.1-5.4,5.5S326.8,511.1,324.2,511.1L324.2,511.1z M324.2,507.5
			c2,0,3.8-0.5,5.4-1.6s2.9-2.5,3.9-4.2s1.5-3.5,1.5-5.4V487c0-1.9-0.5-3.6-1.4-5.3c-1-1.7-2.3-3-3.9-4.1s-3.5-1.6-5.5-1.6
			s-3.8,0.5-5.4,1.6s-2.9,2.4-3.8,4.1c-1,1.7-1.4,3.4-1.4,5.3v9.3c0,1.9,0.5,3.7,1.4,5.4c1,1.7,2.3,3.1,3.9,4.2
			C320.4,506.9,322.2,507.5,324.2,507.5z M359.8,510.7c-3.9,0-7-0.9-9-2.7c-2.1-1.8-3.1-4.7-3.1-8.6v-43c0-0.5,0.2-0.9,0.6-1.2
			c0.4-0.3,0.9-0.4,1.3-0.4c0.5,0,1,0.1,1.4,0.4s0.6,0.7,0.6,1.2V473h10.6c0.4,0,0.8,0.2,1.1,0.5c0.3,0.3,0.4,0.7,0.4,1.3
			c0,0.4-0.1,0.8-0.4,1.2c-0.3,0.3-0.7,0.5-1.1,0.5h-10.6v23c0,2.8,0.6,4.7,1.9,5.9c1.3,1.2,3.4,1.8,6.4,1.8h2c0.6,0,1,0.2,1.4,0.5
			c0.3,0.3,0.5,0.8,0.5,1.3s-0.2,0.9-0.5,1.3s-0.8,0.6-1.4,0.6h-2.1L359.8,510.7z M382.9,511.1c-2.6,0-5-0.7-7.2-2.1s-4-3.2-5.4-5.4
			c-1.4-2.2-2-4.7-2-7.3V487c0-2.6,0.7-5,2-7.3c1.3-2.2,3.1-4,5.4-5.4c2.2-1.3,4.7-2,7.3-2c2.7,0,5.1,0.7,7.3,2s4,3.1,5.4,5.3
			c1.4,2.2,2,4.6,2,7.4v9.3c0,2.6-0.7,5-2,7.2c-1.4,2.3-3.1,4.1-5.4,5.5S385.5,511.1,382.9,511.1L382.9,511.1z M382.9,507.5
			c2,0,3.8-0.5,5.4-1.6s2.9-2.5,3.9-4.2s1.5-3.5,1.5-5.4V487c0-1.9-0.5-3.6-1.4-5.3c-1-1.7-2.3-3-3.9-4.1s-3.5-1.6-5.5-1.6
			s-3.8,0.5-5.4,1.6s-2.9,2.4-3.8,4.1c-1,1.7-1.4,3.4-1.4,5.3v9.3c0,1.9,0.5,3.7,1.4,5.4c1,1.7,2.3,3.1,3.9,4.2
			C379.1,506.9,380.9,507.5,382.9,507.5z M421.4,511.1c-2.5,0-4.7-0.6-6.7-1.8c-1.9-1.2-3.4-2.6-4.3-4.3v3.9c0,0.4-0.2,0.8-0.5,1.2
			c-0.3,0.3-0.8,0.5-1.4,0.5c-0.5,0-1-0.2-1.4-0.5s-0.6-0.7-0.6-1.2V451c0-0.5,0.2-0.9,0.6-1.2c0.4-0.3,0.8-0.4,1.4-0.4
			s1.1,0.1,1.4,0.4c0.4,0.3,0.6,0.7,0.6,1.2v27.4c0.9-1.5,2.3-2.9,4-4.2c1.8-1.3,4-1.9,6.6-1.9s5,0.7,7.2,2s3.9,3.1,5.2,5.3
			c1.3,2.2,2,4.7,2,7.4v9.3c0,2.6-0.7,5-2,7.2c-1.3,2.3-3,4.1-5.2,5.5S423.9,511.1,421.4,511.1L421.4,511.1z M421,507.5
			c1.9,0,3.7-0.5,5.3-1.6c1.6-1.1,2.9-2.5,3.9-4.2s1.5-3.5,1.5-5.4V487c0-1.9-0.5-3.6-1.5-5.3c-1-1.7-2.3-3-3.9-4.1
			s-3.4-1.6-5.4-1.6c-1.7,0-3.4,0.4-5,1.3s-2.9,2.1-3.9,3.8c-1,1.6-1.5,3.6-1.5,5.9v12c0,0.9,0.5,1.9,1.4,3.3
			c0.9,1.3,2.2,2.5,3.8,3.6S419.1,507.5,421,507.5L421,507.5z M457.8,511.1c-2.6,0-5-0.7-7.2-2.1s-4-3.2-5.4-5.4
			c-1.4-2.2-2-4.7-2-7.3V487c0-2.6,0.7-5,2-7.3c1.3-2.2,3.1-4,5.4-5.4c2.2-1.3,4.7-2,7.3-2c2.7,0,5.1,0.7,7.3,2s4,3.1,5.4,5.3
			c1.4,2.2,2,4.6,2,7.4v9.3c0,2.6-0.7,5-2,7.2c-1.4,2.3-3.1,4.1-5.4,5.5S460.5,511.1,457.8,511.1L457.8,511.1z M457.8,507.5
			c2,0,3.8-0.5,5.4-1.6s2.9-2.5,3.9-4.2s1.5-3.5,1.5-5.4V487c0-1.9-0.5-3.6-1.4-5.3c-1-1.7-2.3-3-3.9-4.1s-3.5-1.6-5.5-1.6
			s-3.8,0.5-5.4,1.6s-2.9,2.4-3.8,4.1c-1,1.7-1.4,3.4-1.4,5.3v9.3c0,1.9,0.5,3.7,1.4,5.4c1,1.7,2.3,3.1,3.9,4.2
			C454.1,506.9,455.9,507.5,457.8,507.5z M494.7,511.1c-2.6,0-5-0.7-7.2-2.1s-4-3.2-5.4-5.4c-1.4-2.2-2-4.7-2-7.3V487
			c0-2.6,0.7-5,2-7.3c1.3-2.2,3.1-4,5.4-5.4c2.2-1.3,4.7-2,7.3-2c2.7,0,5.1,0.7,7.3,2s4,3.1,5.4,5.3c1.4,2.2,2,4.6,2,7.4v9.3
			c0,2.6-0.7,5-2,7.2c-1.4,2.3-3.1,4.1-5.4,5.5S497.4,511.1,494.7,511.1L494.7,511.1z M494.7,507.5c2,0,3.8-0.5,5.4-1.6
			s2.9-2.5,3.9-4.2s1.5-3.5,1.5-5.4V487c0-1.9-0.5-3.6-1.4-5.3c-1-1.7-2.3-3-3.9-4.1s-3.5-1.6-5.5-1.6s-3.8,0.5-5.4,1.6
			s-2.9,2.4-3.8,4.1c-1,1.7-1.4,3.4-1.4,5.3v9.3c0,1.9,0.5,3.7,1.4,5.4c1,1.7,2.3,3.1,3.9,4.2C490.9,506.9,492.7,507.5,494.7,507.5z
			 M530.4,510.7c-3.9,0-7-0.9-9-2.7c-2.1-1.8-3.1-4.7-3.1-8.6v-43c0-0.5,0.2-0.9,0.6-1.2c0.4-0.3,0.9-0.4,1.3-0.4
			c0.5,0,1,0.1,1.4,0.4s0.6,0.7,0.6,1.2V473h10.6c0.4,0,0.8,0.2,1.1,0.5s0.4,0.7,0.4,1.3c0,0.4-0.1,0.8-0.4,1.2
			c-0.3,0.3-0.7,0.5-1.1,0.5h-10.6v23c0,2.8,0.6,4.7,1.9,5.9c1.3,1.2,3.4,1.8,6.4,1.8h2c0.6,0,1,0.2,1.4,0.5
			c0.3,0.3,0.5,0.8,0.5,1.3s-0.2,0.9-0.5,1.3s-0.8,0.6-1.4,0.6h-2.1L530.4,510.7z M543,510.7c-0.5,0-1-0.2-1.4-0.5s-0.6-0.7-0.6-1.2
			v-57.9c0-0.5,0.2-0.9,0.6-1.2c0.4-0.3,0.8-0.4,1.4-0.4c0.6,0,1.1,0.1,1.4,0.4s0.6,0.7,0.6,1.2v27.4c0.9-1.5,2.3-2.9,4-4.2
			c1.8-1.3,4-1.9,6.6-1.9s5,0.7,7.2,2s3.9,3.1,5.2,5.3c1.3,2.2,2,4.7,2,7.4V509c0,0.5-0.2,0.9-0.6,1.2c-0.4,0.3-0.9,0.4-1.4,0.4
			c-0.4,0-0.9-0.1-1.3-0.4c-0.4-0.3-0.6-0.7-0.6-1.2v-21.9c0-1.9-0.5-3.6-1.5-5.3c-1-1.7-2.3-3-3.9-4.1c-1.6-1.1-3.4-1.6-5.4-1.6
			c-1.7,0-3.3,0.4-4.9,1.3s-2.9,2.1-3.9,3.8c-1,1.6-1.5,3.6-1.5,5.9V509c0,0.4-0.2,0.8-0.6,1.2S543.6,510.7,543,510.7L543,510.7z"/>
	</g>
	<g id="logo_00000057148332334140114110000004401033072995058343_" display="inline">
		<path fill="#1B3FAA" d="M432.4,348.4c0,15.4-10.1,27.6-23.1,33.8c-13.1,6.2-31.8,2.5-42.1-8c-19.3-19.7-11-50.5,9.8-60.7
			c27.2-13.3,55.4,7.6,55.4,32L432.4,348.4L432.4,348.4z M351.1,347.8c0,8.5,3.1,17.8,7.8,24.3l4.7,5.6c14.9,14.8,39.4,16.9,56,4.5
			c5.8-4.4,11.3-10.7,14.2-17.4c9.7-22.3-0.7-47.7-22-56.9C383.7,295.8,351.1,315,351.1,347.8z"/>
		<path fill="#1B3FAA" d="M419.6,333.6c-4.1,3.7,4.4,8.6-0.9,23c-6.7,18.4-34.9,24.1-46.9,3.8c-12.5-21.2,8.8-44.5,29.3-38.2
			c3.7,1.1,5.6,1.9,8.6,4c2,1.4,6.4,5.6,7-0.2c-0.4-2.3-19.8-19.4-42.3-2.7c-4.6,3.4-9.5,10.6-10.9,19
			c-4.2,26.4,25.5,45.6,47.9,30.9c9.9-6.5,15.8-18,13.9-30.7C424.7,338.8,424,333.2,419.6,333.6L419.6,333.6z"/>
		<path fill="#1B3FAA" d="M312.6,308.3c0-7.9,5.9-10.5,12.7-10.4c5.6,0,17.7,0.6,22.4-0.4c15-3.2,10.2-22.1,23.6-22.1h46.6
			c11.9,0,9,19.8,23.6,22.2c12.5,2,34.7-5.2,34.7,10.7v81.2c0,13.8-15.5,10.7-27.2,10.7c-13.4,0-108.4-0.8-113.1,0.6l0.2,3.9
			c1.2,0.5,1.9,0.7,3.6,0.7h126c8.2,0,15.5-6.2,15.5-14.7v-83c0-4-1.6-6.7-3.2-9.4c-5-8-21.4-5.6-32.4-5.6
			c-15.8,0-10.4-22.3-27.3-22.3h-47.5c-7.3,0-11.4,4.6-14.1,10.1c-3.3,6.2-3.3,12.1-11.3,12.2c-11.3-0.8-15.4-0.9-23.7,0
			c-8.3,1.5-14,5.9-14,15v83.5c0,9.2,7.5,14.2,17.1,14.2c8.5,0,4.4-4.7,4.3-4.7c-4.4-1.5-6.7,1-11.7-2.1c-2.9-1.8-4.7-4.2-4.7-9.1
			v-81.2L312.6,308.3L312.6,308.3z"/>
	</g>
</g>
<g id="logo_-_with_subline">
	<g id="name">
		<path fill="#1B3FAA" d="M233.5,492.5c-0.5,0-1-0.1-1.4-0.4s-0.6-0.7-0.6-1.2v-55.2c0-0.4,0.2-0.8,0.5-1.1c0.3-0.3,0.7-0.5,1.3-0.5
			h14.5c3,0,5.7,0.5,8.1,1.6s4.3,2.9,5.8,5.3c1.4,2.5,2.1,5.7,2.1,9.8v0.9c0,4.1-0.7,7.3-2.1,9.8s-3.3,4.2-5.8,5.4
			c-2.5,1.1-5.2,1.7-8.2,1.7h-12.2V491c0,0.5-0.2,0.9-0.6,1.2C234.5,492.3,234,492.5,233.5,492.5L233.5,492.5z M235.5,464.7h12.2
			c3.8,0,6.7-1.1,8.9-3.2c2.1-2.1,3.2-5.4,3.2-9.8v-1c0-4.4-1.1-7.6-3.2-9.7s-5.1-3.2-8.9-3.2h-12.2L235.5,464.7L235.5,464.7z
			 M273.9,492.5c-0.5,0-1-0.2-1.4-0.5s-0.6-0.7-0.6-1.2v-57.9c0-0.5,0.2-0.9,0.6-1.2c0.4-0.3,0.8-0.4,1.4-0.4s1.1,0.1,1.4,0.4
			c0.4,0.3,0.6,0.7,0.6,1.2v27.4c0.9-1.5,2.3-2.9,4-4.2c1.8-1.3,4-1.9,6.6-1.9s5,0.7,7.2,2s3.9,3.1,5.2,5.3c1.3,2.2,2,4.7,2,7.4
			v21.9c0,0.5-0.2,0.9-0.6,1.2c-0.4,0.3-0.9,0.4-1.4,0.4c-0.4,0-0.9-0.1-1.3-0.4s-0.6-0.7-0.6-1.2v-21.9c0-1.9-0.5-3.6-1.5-5.3
			c-1-1.7-2.3-3-3.9-4.1s-3.4-1.6-5.4-1.6c-1.7,0-3.3,0.4-4.9,1.3s-2.9,2.1-3.9,3.8c-1,1.6-1.5,3.6-1.5,5.9v21.9
			c0,0.4-0.2,0.8-0.6,1.2C275,492.3,274.5,492.5,273.9,492.5L273.9,492.5z M324.2,493c-2.6,0-5-0.7-7.2-2.1s-4-3.2-5.4-5.4
			c-1.4-2.2-2-4.7-2-7.3v-9.3c0-2.6,0.7-5,2-7.3c1.3-2.2,3.1-4,5.4-5.4c2.2-1.3,4.7-2,7.3-2c2.7,0,5.1,0.7,7.3,2s4,3.1,5.4,5.3
			c1.4,2.2,2,4.6,2,7.4v9.3c0,2.6-0.7,5-2,7.2c-1.4,2.3-3.1,4.1-5.4,5.5S326.8,493,324.2,493L324.2,493z M324.2,489.3
			c2,0,3.8-0.5,5.4-1.6s2.9-2.5,3.9-4.2s1.5-3.5,1.5-5.4v-9.3c0-1.9-0.5-3.6-1.4-5.3c-1-1.7-2.3-3-3.9-4.1s-3.5-1.6-5.5-1.6
			s-3.8,0.5-5.4,1.6s-2.9,2.4-3.8,4.1c-1,1.7-1.4,3.4-1.4,5.3v9.3c0,1.9,0.5,3.7,1.4,5.4c1,1.7,2.3,3.1,3.9,4.2
			C320.4,488.7,322.2,489.3,324.2,489.3z M359.8,492.5c-3.9,0-7-0.9-9-2.7c-2.1-1.8-3.1-4.7-3.1-8.6v-43c0-0.5,0.2-0.9,0.6-1.2
			c0.4-0.3,0.9-0.4,1.3-0.4c0.5,0,1,0.1,1.4,0.4s0.6,0.7,0.6,1.2v16.6h10.6c0.4,0,0.8,0.2,1.1,0.5c0.3,0.3,0.4,0.7,0.4,1.3
			c0,0.4-0.1,0.8-0.4,1.2c-0.3,0.3-0.7,0.5-1.1,0.5h-10.6v23c0,2.8,0.6,4.7,1.9,5.9c1.3,1.2,3.4,1.8,6.4,1.8h2c0.6,0,1,0.2,1.4,0.5
			c0.3,0.3,0.5,0.8,0.5,1.3s-0.2,0.9-0.5,1.3s-0.8,0.6-1.4,0.6h-2.1L359.8,492.5z M382.9,493c-2.6,0-5-0.7-7.2-2.1s-4-3.2-5.4-5.4
			c-1.4-2.2-2-4.7-2-7.3v-9.3c0-2.6,0.7-5,2-7.3c1.3-2.2,3.1-4,5.4-5.4c2.2-1.3,4.7-2,7.3-2c2.7,0,5.1,0.7,7.3,2s4,3.1,5.4,5.3
			c1.4,2.2,2,4.6,2,7.4v9.3c0,2.6-0.7,5-2,7.2c-1.4,2.3-3.1,4.1-5.4,5.5S385.5,493,382.9,493L382.9,493z M382.9,489.3
			c2,0,3.8-0.5,5.4-1.6s2.9-2.5,3.9-4.2s1.5-3.5,1.5-5.4v-9.3c0-1.9-0.5-3.6-1.4-5.3c-1-1.7-2.3-3-3.9-4.1s-3.5-1.6-5.5-1.6
			s-3.8,0.5-5.4,1.6s-2.9,2.4-3.8,4.1c-1,1.7-1.4,3.4-1.4,5.3v9.3c0,1.9,0.5,3.7,1.4,5.4c1,1.7,2.3,3.1,3.9,4.2
			C379.1,488.7,380.9,489.3,382.9,489.3z M421.4,493c-2.5,0-4.7-0.6-6.7-1.8c-1.9-1.2-3.4-2.6-4.3-4.3v3.9c0,0.4-0.2,0.8-0.5,1.2
			c-0.3,0.3-0.8,0.5-1.4,0.5c-0.5,0-1-0.2-1.4-0.5s-0.6-0.7-0.6-1.2v-57.9c0-0.5,0.2-0.9,0.6-1.2c0.4-0.3,0.8-0.4,1.4-0.4
			s1.1,0.1,1.4,0.4c0.4,0.3,0.6,0.7,0.6,1.2v27.4c0.9-1.5,2.3-2.9,4-4.2c1.8-1.3,4-1.9,6.6-1.9s5,0.7,7.2,2s3.9,3.1,5.2,5.3
			c1.3,2.2,2,4.7,2,7.4v9.3c0,2.6-0.7,5-2,7.2c-1.3,2.3-3,4.1-5.2,5.5S423.9,493,421.4,493L421.4,493z M421,489.3
			c1.9,0,3.7-0.5,5.3-1.6c1.6-1.1,2.9-2.5,3.9-4.2s1.5-3.5,1.5-5.4v-9.3c0-1.9-0.5-3.6-1.5-5.3c-1-1.7-2.3-3-3.9-4.1
			s-3.4-1.6-5.4-1.6c-1.7,0-3.4,0.4-5,1.3s-2.9,2.1-3.9,3.8c-1,1.6-1.5,3.6-1.5,5.9v12c0,0.9,0.5,1.9,1.4,3.3
			c0.9,1.3,2.2,2.5,3.8,3.6S419.1,489.3,421,489.3L421,489.3z M457.8,493c-2.6,0-5-0.7-7.2-2.1s-4-3.2-5.4-5.4c-1.4-2.2-2-4.7-2-7.3
			v-9.3c0-2.6,0.7-5,2-7.3c1.3-2.2,3.1-4,5.4-5.4c2.2-1.3,4.7-2,7.3-2c2.7,0,5.1,0.7,7.3,2s4,3.1,5.4,5.3c1.4,2.2,2,4.6,2,7.4v9.3
			c0,2.6-0.7,5-2,7.2c-1.4,2.3-3.1,4.1-5.4,5.5S460.5,493,457.8,493L457.8,493z M457.8,489.3c2,0,3.8-0.5,5.4-1.6s2.9-2.5,3.9-4.2
			s1.5-3.5,1.5-5.4v-9.3c0-1.9-0.5-3.6-1.4-5.3c-1-1.7-2.3-3-3.9-4.1s-3.5-1.6-5.5-1.6s-3.8,0.5-5.4,1.6s-2.9,2.4-3.8,4.1
			c-1,1.7-1.4,3.4-1.4,5.3v9.3c0,1.9,0.5,3.7,1.4,5.4c1,1.7,2.3,3.1,3.9,4.2C454.1,488.7,455.9,489.3,457.8,489.3z M494.7,493
			c-2.6,0-5-0.7-7.2-2.1s-4-3.2-5.4-5.4c-1.4-2.2-2-4.7-2-7.3v-9.3c0-2.6,0.7-5,2-7.3c1.3-2.2,3.1-4,5.4-5.4c2.2-1.3,4.7-2,7.3-2
			c2.7,0,5.1,0.7,7.3,2s4,3.1,5.4,5.3c1.4,2.2,2,4.6,2,7.4v9.3c0,2.6-0.7,5-2,7.2c-1.4,2.3-3.1,4.1-5.4,5.5S497.4,493,494.7,493
			L494.7,493z M494.7,489.3c2,0,3.8-0.5,5.4-1.6s2.9-2.5,3.9-4.2s1.5-3.5,1.5-5.4v-9.3c0-1.9-0.5-3.6-1.4-5.3c-1-1.7-2.3-3-3.9-4.1
			s-3.5-1.6-5.5-1.6s-3.8,0.5-5.4,1.6s-2.9,2.4-3.8,4.1c-1,1.7-1.4,3.4-1.4,5.3v9.3c0,1.9,0.5,3.7,1.4,5.4c1,1.7,2.3,3.1,3.9,4.2
			C490.9,488.7,492.7,489.3,494.7,489.3z M530.4,492.5c-3.9,0-7-0.9-9-2.7c-2.1-1.8-3.1-4.7-3.1-8.6v-43c0-0.5,0.2-0.9,0.6-1.2
			c0.4-0.3,0.9-0.4,1.3-0.4c0.5,0,1,0.1,1.4,0.4s0.6,0.7,0.6,1.2v16.6h10.6c0.4,0,0.8,0.2,1.1,0.5s0.4,0.7,0.4,1.3
			c0,0.4-0.1,0.8-0.4,1.2c-0.3,0.3-0.7,0.5-1.1,0.5h-10.6v23c0,2.8,0.6,4.7,1.9,5.9c1.3,1.2,3.4,1.8,6.4,1.8h2c0.6,0,1,0.2,1.4,0.5
			c0.3,0.3,0.5,0.8,0.5,1.3s-0.2,0.9-0.5,1.3s-0.8,0.6-1.4,0.6h-2.1L530.4,492.5z M543,492.5c-0.5,0-1-0.2-1.4-0.5s-0.6-0.7-0.6-1.2
			v-57.9c0-0.5,0.2-0.9,0.6-1.2c0.4-0.3,0.8-0.4,1.4-0.4c0.6,0,1.1,0.1,1.4,0.4s0.6,0.7,0.6,1.2v27.4c0.9-1.5,2.3-2.9,4-4.2
			c1.8-1.3,4-1.9,6.6-1.9s5,0.7,7.2,2s3.9,3.1,5.2,5.3c1.3,2.2,2,4.7,2,7.4v21.9c0,0.5-0.2,0.9-0.6,1.2c-0.4,0.3-0.9,0.4-1.4,0.4
			c-0.4,0-0.9-0.1-1.3-0.4c-0.4-0.3-0.6-0.7-0.6-1.2v-21.9c0-1.9-0.5-3.6-1.5-5.3c-1-1.7-2.3-3-3.9-4.1c-1.6-1.1-3.4-1.6-5.4-1.6
			c-1.7,0-3.3,0.4-4.9,1.3s-2.9,2.1-3.9,3.8c-1,1.6-1.5,3.6-1.5,5.9v21.9c0,0.4-0.2,0.8-0.6,1.2S543.6,492.5,543,492.5L543,492.5z"
			/>
	</g>
	<g id="subline_00000007427185761868662440000013823675583781129604_">
		<path fill="#1B3FAA" d="M266.7,539.6c-0.3,0-0.6-0.1-0.9-0.2c-0.3-0.1-0.5-0.3-0.6-0.6l-5.6-14.5c0-0.1-0.1-0.2-0.1-0.3
			s-0.1-0.2-0.1-0.3c0-0.3,0.1-0.6,0.4-0.8s0.6-0.4,1-0.6c0.4-0.1,0.7-0.2,1.1-0.2c0.3,0,0.5,0.1,0.7,0.2c0.2,0.1,0.4,0.3,0.4,0.5
			l4,11.2l3.1-9.9c0.1-0.4,0.3-0.6,0.5-0.7c0.2-0.1,0.5-0.1,0.8-0.1s0.6,0,0.8,0.1c0.2,0.1,0.4,0.3,0.5,0.7l3,10l4-11.3
			c0.1-0.5,0.5-0.7,1.1-0.7c0.3,0,0.7,0.1,1.1,0.2s0.7,0.3,1,0.6c0.3,0.2,0.4,0.5,0.4,0.9v0.3c0,0.1-0.1,0.2-0.1,0.3l-5.6,14.6
			c-0.1,0.3-0.3,0.5-0.6,0.6c-0.3,0.1-0.6,0.2-0.9,0.2c-0.4,0-0.7-0.1-1-0.2c-0.3-0.1-0.5-0.3-0.6-0.5l-3.2-9.3l-3.1,9.2
			c-0.1,0.3-0.3,0.5-0.6,0.6H266.7L266.7,539.6z M293.4,539.6c-1.6,0-3.1-0.3-4.3-0.9c-1.2-0.6-2.2-1.4-3-2.5
			c-0.7-1.1-1.1-2.3-1.1-3.8V529c0-1.3,0.3-2.4,1-3.5s1.6-1.9,2.7-2.5s2.4-1,3.7-1c1.3,0,2.5,0.3,3.6,0.8c1.1,0.6,1.9,1.3,2.6,2.4
			c0.7,1,1,2.2,1,3.5c0,1-0.2,1.7-0.5,2.2c-0.3,0.4-0.7,0.7-1.2,0.8s-1,0.1-1.6,0.1h-7.6v0.8c0,1.2,0.4,2.2,1.3,2.9s2,1.1,3.4,1.1
			c0.8,0,1.5-0.1,2.1-0.4c0.5-0.2,1-0.5,1.3-0.7c0.4-0.2,0.7-0.3,1-0.3s0.6,0.1,0.8,0.3c0.2,0.2,0.4,0.4,0.5,0.7s0.2,0.5,0.2,0.7
			c0,0.4-0.2,0.8-0.7,1.2s-1.2,0.8-2.1,1.1C295.6,539.4,294.6,539.6,293.4,539.6L293.4,539.6z M288.8,529.4h6c0.5,0,0.9-0.1,1.1-0.2
			c0.2-0.1,0.3-0.4,0.3-0.9c0-0.6-0.2-1.2-0.5-1.7s-0.7-1-1.3-1.3c-0.6-0.3-1.2-0.5-1.9-0.5s-1.3,0.1-1.8,0.4
			c-0.6,0.3-1,0.7-1.3,1.2s-0.5,1.1-0.5,1.8v1.2H288.8z M312.1,539.3c-0.6,0-1-0.1-1.3-0.4c-0.3-0.3-0.5-0.6-0.5-0.9v-24.7
			c0-0.4,0.2-0.7,0.5-0.9s0.8-0.3,1.3-0.3s1,0.1,1.4,0.3s0.6,0.5,0.6,0.9V538c0,0.3-0.2,0.6-0.6,0.9
			C313.1,539.1,312.7,539.3,312.1,539.3L312.1,539.3z M325,539.6c-1.3,0-2.5-0.3-3.6-1s-2-1.6-2.7-2.6c-0.7-1.1-1-2.3-1-3.5v-3.3
			c0-1.3,0.3-2.4,1-3.5s1.6-1.9,2.7-2.6c1.1-0.6,2.4-1,3.7-1c1.3,0,2.6,0.3,3.7,1c1.1,0.6,2,1.5,2.7,2.6s1,2.2,1,3.6v3.3
			c0,1.2-0.3,2.4-1,3.5s-1.6,2-2.7,2.7C327.6,539.2,326.4,539.6,325,539.6L325,539.6z M325.1,536.2c0.7,0,1.3-0.2,1.8-0.5
			c0.6-0.4,1-0.8,1.3-1.4c0.3-0.6,0.5-1.2,0.5-1.9v-3.3c0-0.6-0.2-1.3-0.5-1.8c-0.3-0.6-0.8-1-1.3-1.4c-0.6-0.4-1.2-0.5-1.9-0.5
			s-1.3,0.2-1.8,0.5c-0.5,0.4-1,0.8-1.3,1.4c-0.3,0.6-0.5,1.2-0.5,1.8v3.3c0,0.6,0.2,1.3,0.5,1.9c0.3,0.6,0.8,1.1,1.3,1.4
			C323.8,536,324.4,536.2,325.1,536.2z M342,539.6c-0.4,0-0.8-0.1-1.1-0.2s-0.5-0.3-0.6-0.6l-6-14.6c0-0.1-0.1-0.2-0.1-0.3
			s-0.1-0.2-0.1-0.3c0-0.3,0.1-0.6,0.4-0.8s0.6-0.4,1-0.6c0.4-0.1,0.7-0.2,1.1-0.2c0.2,0,0.5,0.1,0.7,0.2c0.2,0.1,0.4,0.3,0.4,0.5
			l4.3,11.4l4.2-11.3c0.1-0.2,0.2-0.4,0.4-0.6c0.2-0.1,0.4-0.2,0.7-0.2c0.3,0,0.6,0.1,1,0.2s0.7,0.3,1,0.6s0.4,0.5,0.4,0.8v0.3
			c0,0.1-0.1,0.2-0.1,0.3l-6,14.6c-0.1,0.2-0.3,0.4-0.7,0.6C342.7,539.6,342.4,539.6,342,539.6L342,539.6z M359.8,539.6
			c-1.6,0-3.1-0.3-4.3-0.9c-1.2-0.6-2.2-1.4-3-2.5c-0.7-1.1-1.1-2.3-1.1-3.8V529c0-1.3,0.3-2.4,1-3.5s1.6-1.9,2.7-2.5s2.4-1,3.7-1
			c1.3,0,2.5,0.3,3.6,0.8c1.1,0.6,1.9,1.3,2.6,2.4c0.7,1,1,2.2,1,3.5c0,1-0.2,1.7-0.5,2.2c-0.3,0.4-0.7,0.7-1.2,0.8s-1,0.1-1.6,0.1
			h-7.6v0.8c0,1.2,0.4,2.2,1.3,2.9s2,1.1,3.4,1.1c0.8,0,1.5-0.1,2.1-0.4c0.5-0.2,1-0.5,1.3-0.7c0.4-0.2,0.7-0.3,1-0.3
			s0.6,0.1,0.8,0.3c0.2,0.2,0.4,0.4,0.5,0.7s0.2,0.5,0.2,0.7c0,0.4-0.2,0.8-0.7,1.2s-1.2,0.8-2.1,1.1
			C362.1,539.4,361,539.6,359.8,539.6L359.8,539.6z M355.2,529.4h6c0.5,0,0.9-0.1,1.1-0.2c0.2-0.1,0.3-0.4,0.3-0.9
			c0-0.6-0.2-1.2-0.5-1.7s-0.7-1-1.3-1.3c-0.6-0.3-1.2-0.5-1.9-0.5s-1.3,0.1-1.8,0.4c-0.6,0.3-1,0.7-1.3,1.2s-0.5,1.1-0.5,1.8v1.2
			H355.2z M383.1,539.6c-1.3,0-2.5-0.3-3.6-1s-2-1.6-2.7-2.6c-0.7-1.1-1-2.3-1-3.5v-3.3c0-1.3,0.3-2.4,1-3.5s1.6-1.9,2.7-2.6
			c1.1-0.6,2.4-1,3.7-1c1.3,0,2.6,0.3,3.7,1c1.1,0.6,2,1.5,2.7,2.6s1,2.2,1,3.6v3.3c0,1.2-0.3,2.4-1,3.5s-1.6,2-2.7,2.7
			C385.7,539.2,384.5,539.6,383.1,539.6L383.1,539.6z M383.2,536.2c0.7,0,1.3-0.2,1.8-0.5c0.6-0.4,1-0.8,1.3-1.4
			c0.3-0.6,0.5-1.2,0.5-1.9v-3.3c0-0.6-0.2-1.3-0.5-1.8c-0.3-0.6-0.8-1-1.3-1.4c-0.6-0.4-1.2-0.5-1.9-0.5s-1.3,0.2-1.8,0.5
			c-0.5,0.4-1,0.8-1.3,1.4c-0.3,0.6-0.5,1.2-0.5,1.8v3.3c0,0.6,0.2,1.3,0.5,1.9c0.3,0.6,0.8,1.1,1.3,1.4
			C381.9,536,382.5,536.2,383.2,536.2z M395.8,547.4c-0.5,0-1-0.1-1.3-0.4c-0.3-0.3-0.5-0.6-0.5-0.9v-22.7c0-0.4,0.2-0.7,0.5-0.9
			s0.8-0.3,1.3-0.3s0.9,0.1,1.3,0.3c0.3,0.2,0.5,0.5,0.5,0.9v1.3c0.4-0.7,1-1.3,1.9-1.9c0.8-0.6,1.8-0.8,3-0.8s2.3,0.3,3.3,1
			c1,0.6,1.8,1.5,2.3,2.6c0.6,1.1,0.9,2.3,0.9,3.6v3.3c0,1.2-0.3,2.4-0.9,3.5s-1.4,2-2.3,2.6c-1,0.7-2,1-3.1,1s-2.1-0.3-2.9-0.8
			c-0.9-0.6-1.5-1.2-1.8-2v9.4c0,0.3-0.2,0.6-0.6,0.9C396.8,547.2,396.3,547.4,395.8,547.4L395.8,547.4z M401.4,536.2
			c0.6,0,1.2-0.2,1.8-0.5c0.6-0.4,1-0.8,1.3-1.4c0.3-0.6,0.5-1.2,0.5-1.8v-3.3c0-0.6-0.2-1.2-0.5-1.8s-0.8-1-1.4-1.4
			s-1.2-0.5-1.9-0.5c-0.6,0-1.1,0.1-1.7,0.4c-0.6,0.3-1,0.7-1.4,1.3c-0.3,0.6-0.5,1.2-0.5,2v4.1c0,0.3,0.2,0.7,0.5,1.1
			c0.3,0.5,0.7,0.9,1.3,1.3C400,536,400.7,536.2,401.4,536.2L401.4,536.2z M419.8,539.6c-1.6,0-3.1-0.3-4.3-0.9
			c-1.2-0.6-2.2-1.4-3-2.5c-0.7-1.1-1.1-2.3-1.1-3.8V529c0-1.3,0.3-2.4,1-3.5s1.6-1.9,2.7-2.5s2.4-1,3.7-1c1.3,0,2.5,0.3,3.6,0.8
			c1.1,0.6,2,1.3,2.6,2.4s1,2.2,1,3.5c0,1-0.2,1.7-0.5,2.2c-0.3,0.4-0.7,0.7-1.2,0.8s-1,0.1-1.6,0.1h-7.6v0.8c0,1.2,0.4,2.2,1.3,2.9
			s2,1.1,3.4,1.1c0.8,0,1.5-0.1,2.1-0.4c0.5-0.2,1-0.5,1.3-0.7c0.4-0.2,0.7-0.3,1-0.3s0.6,0.1,0.8,0.3c0.2,0.2,0.4,0.4,0.5,0.7
			s0.2,0.5,0.2,0.7c0,0.4-0.2,0.8-0.7,1.2s-1.2,0.8-2.1,1.1C422.1,539.4,421,539.6,419.8,539.6L419.8,539.6z M415.2,529.4h6
			c0.5,0,0.9-0.1,1.1-0.2c0.2-0.1,0.3-0.4,0.3-0.9c0-0.6-0.2-1.2-0.5-1.7s-0.7-1-1.3-1.3c-0.6-0.3-1.2-0.5-1.9-0.5s-1.3,0.1-1.8,0.4
			c-0.6,0.3-1,0.7-1.3,1.2s-0.5,1.1-0.5,1.8v1.2H415.2z M431.1,539.3c-0.6,0-1-0.1-1.3-0.4c-0.3-0.3-0.5-0.6-0.5-0.9v-14.6
			c0-0.4,0.2-0.7,0.5-0.9s0.8-0.3,1.3-0.3s0.9,0.1,1.2,0.3c0.3,0.2,0.5,0.5,0.5,0.9v1.3c0.4-0.7,1-1.3,1.8-1.9
			c0.8-0.6,1.8-0.8,3-0.8c1.1,0,2.2,0.3,3.1,1c0.9,0.6,1.7,1.5,2.3,2.6c0.6,1.1,0.9,2.3,0.9,3.6v8.9c0,0.4-0.2,0.7-0.6,0.9
			s-0.8,0.3-1.3,0.3c-0.4,0-0.9-0.1-1.3-0.3s-0.6-0.5-0.6-0.9v-8.9c0-0.6-0.2-1.2-0.5-1.8s-0.8-1-1.3-1.4c-0.6-0.4-1.2-0.5-1.8-0.5
			c-0.6,0-1.1,0.1-1.7,0.4c-0.5,0.3-1,0.7-1.3,1.3s-0.5,1.2-0.5,2v8.9c0,0.3-0.2,0.6-0.6,0.9C432.1,539.1,431.6,539.3,431.1,539.3
			L431.1,539.3z M452.9,539.6c-1.2,0-2.2-0.1-3.2-0.4c-0.9-0.3-1.7-0.7-2.2-1.1c-0.5-0.4-0.8-0.9-0.8-1.3c0-0.2,0.1-0.5,0.2-0.7
			c0.1-0.3,0.3-0.5,0.5-0.7s0.4-0.3,0.7-0.3c0.3,0,0.6,0.1,1,0.4c0.3,0.3,0.8,0.6,1.4,0.8c0.6,0.3,1.4,0.4,2.4,0.4
			c1.2,0,2-0.2,2.4-0.6c0.4-0.4,0.6-0.9,0.6-1.3c0-0.6-0.2-1.1-0.6-1.5c-0.4-0.3-1-0.6-1.6-0.8s-1.4-0.4-2.1-0.6
			c-0.7-0.2-1.4-0.5-2.1-0.8s-1.2-0.8-1.6-1.4s-0.6-1.4-0.6-2.4c0-0.8,0.2-1.6,0.6-2.4c0.4-0.8,1.1-1.5,2-2s2.1-0.8,3.6-0.8
			c0.9,0,1.8,0.1,2.6,0.3c0.8,0.2,1.5,0.5,2,0.8s0.8,0.7,0.8,1.1c0,0.2-0.1,0.4-0.2,0.7s-0.3,0.6-0.5,0.8s-0.5,0.3-0.8,0.3
			c-0.2,0-0.5-0.1-0.9-0.3s-0.8-0.4-1.3-0.5c-0.5-0.2-1.1-0.3-1.8-0.3s-1.3,0.1-1.7,0.3c-0.4,0.2-0.7,0.5-0.9,0.8
			c-0.2,0.3-0.3,0.6-0.3,0.9c0,0.5,0.2,0.9,0.6,1.2s0.9,0.5,1.6,0.7l2.1,0.6c0.7,0.2,1.4,0.5,2.1,0.9s1.2,0.9,1.6,1.5
			s0.6,1.5,0.6,2.6c0,1.5-0.5,2.7-1.6,3.6S454.9,539.6,452.9,539.6L452.9,539.6z M469,539.6c-1.3,0-2.5-0.3-3.6-1s-2-1.6-2.7-2.6
			c-0.7-1.1-1-2.3-1-3.5v-3.3c0-1.3,0.3-2.4,1-3.5s1.6-1.9,2.7-2.6c1.1-0.6,2.4-1,3.7-1c1.3,0,2.6,0.3,3.7,1c1.1,0.6,2,1.5,2.7,2.6
			s1,2.2,1,3.6v3.3c0,1.2-0.3,2.4-1,3.5s-1.6,2-2.7,2.7C471.6,539.2,470.3,539.6,469,539.6L469,539.6z M469,536.2
			c0.7,0,1.3-0.2,1.8-0.5c0.6-0.4,1-0.8,1.3-1.4c0.3-0.6,0.5-1.2,0.5-1.9v-3.3c0-0.6-0.2-1.3-0.5-1.8c-0.3-0.6-0.8-1-1.3-1.4
			c-0.6-0.4-1.2-0.5-1.9-0.5s-1.3,0.2-1.8,0.5c-0.5,0.4-1,0.8-1.3,1.4c-0.3,0.6-0.5,1.2-0.5,1.8v3.3c0,0.6,0.2,1.3,0.5,1.9
			c0.3,0.6,0.8,1.1,1.3,1.4C467.7,536,468.4,536.2,469,536.2z M487.1,539.6c-1.4,0-2.6-0.3-3.8-1c-1.1-0.7-2-1.5-2.7-2.6
			s-1-2.2-1-3.5v-9c0-0.3,0.2-0.6,0.6-0.9c0.4-0.3,0.8-0.4,1.3-0.4s1,0.1,1.4,0.4c0.4,0.3,0.6,0.6,0.6,0.9v9c0,0.6,0.2,1.3,0.5,1.8
			c0.3,0.6,0.8,1,1.3,1.4c0.6,0.4,1.2,0.5,1.9,0.5s1.3-0.2,1.8-0.5c0.6-0.4,1-0.8,1.3-1.4c0.3-0.6,0.5-1.2,0.5-1.8v-9
			c0-0.3,0.2-0.6,0.6-0.9c0.4-0.2,0.8-0.4,1.3-0.4c0.6,0,1,0.1,1.4,0.4c0.3,0.2,0.5,0.5,0.5,0.9v9c0,1.3-0.3,2.4-1,3.5
			s-1.6,1.9-2.7,2.6C489.6,539.2,488.4,539.6,487.1,539.6L487.1,539.6z M500.1,539.3c-0.5,0-1-0.1-1.3-0.4c-0.3-0.3-0.5-0.6-0.5-0.9
			v-14.6c0-0.4,0.2-0.7,0.5-0.9s0.8-0.3,1.3-0.3s0.9,0.1,1.2,0.3s0.5,0.5,0.5,0.9v1.6c0.3-0.5,0.6-1,1.1-1.4c0.4-0.5,1-0.8,1.6-1.1
			s1.2-0.5,1.9-0.5h1.2c0.4,0,0.7,0.2,1,0.5s0.4,0.7,0.4,1.2s-0.1,0.9-0.4,1.2s-0.6,0.5-1,0.5h-1.2c-0.7,0-1.4,0.2-2.1,0.6
			c-0.7,0.4-1.2,1-1.6,1.8s-0.6,1.7-0.6,2.8v7.4c0,0.3-0.2,0.6-0.6,0.9C501.1,539.1,500.6,539.3,500.1,539.3z M517.5,539.6
			c-1.7,0-3.1-0.3-4.3-0.9c-1.1-0.6-1.9-1.5-2.5-2.6c-0.5-1.1-0.8-2.3-0.8-3.7v-3.2c0-1.3,0.3-2.6,0.8-3.7s1.3-2,2.4-2.6
			c1.1-0.6,2.5-0.9,4.2-0.9c1.1,0,2.1,0.1,2.9,0.4c0.8,0.3,1.5,0.6,1.9,1c0.5,0.4,0.7,0.8,0.7,1.2c0,0.2-0.1,0.5-0.2,0.8
			c-0.1,0.3-0.3,0.6-0.5,0.8s-0.5,0.3-0.8,0.3c-0.2,0-0.5-0.1-0.8-0.3s-0.6-0.4-1.1-0.6c-0.5-0.2-1.1-0.3-1.8-0.3
			c-1.3,0-2.3,0.3-3,1c-0.6,0.7-1,1.6-1,2.8v3.2c0,1.2,0.3,2.1,1,2.8c0.6,0.7,1.7,1,3,1c0.8,0,1.4-0.1,1.9-0.3s0.8-0.4,1.1-0.6
			c0.3-0.2,0.5-0.3,0.8-0.3s0.6,0.1,0.9,0.3c0.3,0.2,0.4,0.4,0.6,0.7s0.2,0.6,0.2,0.8c0,0.4-0.2,0.8-0.7,1.3c-0.5,0.4-1.2,0.8-2,1.1
			S518.6,539.6,517.5,539.6L517.5,539.6z M533.4,539.6c-1.6,0-3.1-0.3-4.3-0.9c-1.2-0.6-2.2-1.4-3-2.5c-0.7-1.1-1.1-2.3-1.1-3.8V529
			c0-1.3,0.3-2.4,1-3.5s1.6-1.9,2.7-2.5c1.1-0.6,2.4-1,3.7-1s2.5,0.3,3.6,0.8c1.1,0.6,2,1.3,2.6,2.4s1,2.2,1,3.5
			c0,1-0.2,1.7-0.5,2.2s-0.7,0.7-1.2,0.8s-1,0.1-1.6,0.1h-7.6v0.8c0,1.2,0.4,2.2,1.3,2.9s2,1.1,3.4,1.1c0.8,0,1.5-0.1,2.1-0.4
			s1-0.5,1.3-0.7c0.4-0.2,0.7-0.3,1-0.3s0.6,0.1,0.8,0.3s0.4,0.4,0.5,0.7s0.2,0.5,0.2,0.7c0,0.4-0.2,0.8-0.7,1.2s-1.2,0.8-2.1,1.1
			S534.6,539.6,533.4,539.6L533.4,539.6z M528.8,529.4h6c0.5,0,0.9-0.1,1.1-0.2c0.2-0.1,0.3-0.4,0.3-0.9c0-0.6-0.2-1.2-0.5-1.7
			s-0.7-1-1.3-1.3s-1.2-0.5-1.9-0.5s-1.3,0.1-1.8,0.4c-0.6,0.3-1,0.7-1.3,1.2s-0.5,1.1-0.5,1.8L528.8,529.4L528.8,529.4z"/>
	</g>
	<g id="logo">
		<path fill="#1B3FAA" d="M432.4,330.2c0,15.4-10.1,27.6-23.1,33.8c-13.1,6.2-31.8,2.5-42.1-8c-19.3-19.7-11-50.5,9.8-60.7
			c27.2-13.3,55.4,7.6,55.4,32L432.4,330.2L432.4,330.2z M351.1,329.6c0,8.5,3.1,17.8,7.8,24.3l4.7,5.6c14.9,14.8,39.4,16.9,56,4.5
			c5.8-4.4,11.3-10.7,14.2-17.4c9.7-22.3-0.7-47.7-22-56.9C383.7,277.6,351.1,296.8,351.1,329.6z"/>
		<path fill="#1B3FAA" d="M419.6,315.4c-4.1,3.7,4.4,8.6-0.9,23c-6.7,18.4-34.9,24.1-46.9,3.8c-12.5-21.2,8.8-44.5,29.3-38.2
			c3.7,1.1,5.6,1.9,8.6,4c2,1.4,6.4,5.6,7-0.2c-0.4-2.3-19.8-19.4-42.3-2.7c-4.6,3.4-9.5,10.6-10.9,19
			c-4.2,26.4,25.5,45.6,47.9,30.9c9.9-6.5,15.8-18,13.9-30.7C424.7,320.6,424,315,419.6,315.4L419.6,315.4z"/>
		<path fill="#1B3FAA" d="M312.6,290.1c0-7.9,5.9-10.5,12.7-10.4c5.6,0,17.7,0.6,22.4-0.4c15-3.2,10.2-22.1,23.6-22.1h46.6
			c11.9,0,9,19.8,23.6,22.2c12.5,2,34.7-5.2,34.7,10.7v81.2c0,13.8-15.5,10.7-27.2,10.7c-13.4,0-108.4-0.8-113.1,0.6l0.2,3.9
			c1.2,0.5,1.9,0.7,3.6,0.7h126c8.2,0,15.5-6.2,15.5-14.7v-83c0-4-1.6-6.7-3.2-9.4c-5-8-21.4-5.6-32.4-5.6
			c-15.8,0-10.4-22.3-27.3-22.3h-47.5c-7.3,0-11.4,4.6-14.1,10.1c-3.3,6.2-3.3,12.1-11.3,12.2c-11.3-0.8-15.4-0.9-23.7,0
			c-8.3,1.5-14,5.9-14,15V373c0,9.2,7.5,14.2,17.1,14.2c8.5,0,4.4-4.7,4.3-4.7c-4.4-1.5-6.7,1-11.7-2.1c-2.9-1.8-4.7-4.2-4.7-9.1
			v-81.2L312.6,290.1L312.6,290.1z"/>
	</g>
</g>
</svg>
