<?xml version="1.0" encoding="utf-8"?>
<!-- Generator: Adobe Illustrator 27.9.0, SVG Export Plug-In . SVG Version: 6.00 Build 0)  -->
<svg version="1.1" id="Ebene_1" xmlns="http://www.w3.org/2000/svg" xmlns:xlink="http://www.w3.org/1999/xlink" x="0px" y="0px"
	 viewBox="0 0 800 800" enable-background="new 0 0 800 800" xml:space="preserve">
<g id="logo">
	<path fill="#1B3FAA" d="M553.1,442.4c0,62.1-40.7,111.4-93.2,136.4c-52.9,25-128.3,10.1-169.9-32.3
		c-77.9-79.5-44.4-203.7,39.5-244.9c109.7-53.7,223.5,30.7,223.5,129.1L553.1,442.4L553.1,442.4z M225.1,439.9
		c0,34.3,12.5,71.8,31.5,98l19,22.6c60.1,59.7,159,68.2,225.9,18.2c23.4-17.8,45.6-43.2,57.3-70.2c39.1-90-2.8-192.4-88.8-229.6
		C356.6,230.1,225.1,307.6,225.1,439.9z"/>
	<path fill="#1B3FAA" d="M501.5,382.7c-16.5,14.9,17.8,34.7-3.6,92.8c-27,74.2-140.8,97.2-189.2,15.3
		c-50.4-85.5,35.5-179.5,118.2-154.1c14.9,4.4,22.6,7.7,34.7,16.1c8.1,5.6,25.8,22.6,28.2-0.8c-1.6-9.3-79.9-78.3-170.7-10.9
		c-18.6,13.7-38.3,42.8-44,76.7c-16.9,106.5,102.9,184,193.3,124.7c39.9-26.2,63.7-72.6,56.1-123.9C522,403.6,519.2,381,501.5,382.7
		L501.5,382.7z"/>
	<path fill="#1B3FAA" d="M69.8,280.6c0-31.9,23.8-42.4,51.2-42c22.6,0,71.4,2.4,90.4-1.6c60.5-12.9,41.2-89.2,95.2-89.2h188
		c48,0,36.3,79.9,95.2,89.6c50.4,8.1,140-21,140,43.2v327.6c0,55.7-62.5,43.2-109.7,43.2c-54.1,0-437.3-3.2-456.3,2.4l0.8,15.7
		c4.8,2,7.7,2.8,14.5,2.8h508.4c33.1,0,62.5-25,62.5-59.3V278.2c0-16.1-6.5-27-12.9-37.9c-20.2-32.3-86.3-22.6-130.7-22.6
		c-63.7,0-42-90-110.1-90H304.6c-29.5,0-46,18.6-56.9,40.7c-13.3,25-13.3,48.8-45.6,49.2c-45.6-3.2-62.1-3.6-95.6,0
		C73,223.7,50,241.4,50,278.2V615c0,37.1,30.3,57.3,69,57.3c34.3,0,17.8-19,17.3-19c-17.8-6.1-27,4-47.2-8.5
		c-11.7-7.3-19-16.9-19-36.7V280.6H69.8z"/>
</g>
<g>
</g>
<g>
</g>
<g>
</g>
<g>
</g>
<g>
</g>
<g>
</g>
<g>
</g>
<g>
</g>
<g>
</g>
<g>
</g>
<g>
</g>
<g>
</g>
<g>
</g>
<g>
</g>
<g>
</g>
</svg>
