<?xml version="1.0" encoding="utf-8"?>
<!-- Generator: Adobe Illustrator 27.2.0, SVG Export Plug-In . SVG Version: 6.00 Build 0)  -->
<svg version="1.1" id="Ebene_1" xmlns="http://www.w3.org/2000/svg" xmlns:xlink="http://www.w3.org/1999/xlink" x="0px" y="0px"
	 viewBox="0 0 1200 750" style="enable-background:new 0 0 1200 750;" xml:space="preserve">
<style type="text/css">
	.st0{fill:#FFFFFF;stroke:#FFFFFF;stroke-miterlimit:10;}
</style>
<g>
	<path class="st0" d="M564,379c7.7,7.7,15.2,15.2,22.7,22.7c-0.5,0.6-1.1,1.2-1.7,1.7c-3.5,3.5-6.9,6.9-10.4,10.4
		c-7.2,7.2-15.8,12.3-25.5,15.4c-3.5,1.1-7.1,1.9-10.8,2.4c-4.1,0.6-8.2,0.9-12.3,0.6c-13-0.8-24.8-4.9-35.3-12.7
		c-8.7-6.5-15.4-14.6-20-24.4c-2.6-5.4-4.2-11-5.3-16.9c-0.6-3.4-0.8-6.9-0.9-10.3c-0.1-2.8,0.4-5.6,0.6-8.4
		c0.3-4.2,1.4-8.3,2.7-12.3c2.4-7.3,6-13.9,10.7-20c6.4-8.2,14.4-14.4,23.8-18.7c4.9-2.3,10.1-3.8,15.4-4.8c4.9-0.9,9.8-1.3,14.7-1
		c7.4,0.5,14.6,2,21.5,4.8c8.2,3.4,15.3,8.3,21.6,14.6c22.6,22.7,45.3,45.4,68,68c4.9,4.9,10.6,8.2,17.4,9.3
		c3.1,0.5,6.1,0.8,9.3,0.4c5.8-0.6,11-2.5,15.7-5.9c6.6-4.7,10.8-11.1,12.8-19c1-3.9,1.1-7.8,0.6-11.6c-0.6-5.9-2.9-11.2-6.5-15.9
		c-4.8-6.1-10.9-10.1-18.5-11.9c-3.5-0.8-7-1.1-10.6-0.7c-6.1,0.7-11.5,2.7-16.4,6.4c-1.3,1-2.6,2.1-3.8,3.3c-3.5,3.5-7,7-10.5,10.5
		c-0.3,0.3-0.5,0.6-0.6,0.9c-7.6-7.7-15.1-15.1-22.7-22.7c0.4-0.4,1-1,1.5-1.6c3.5-3.5,6.9-6.9,10.4-10.4
		c7.2-7.2,15.8-12.3,25.5-15.4c3.5-1.1,7.1-1.9,10.8-2.4c4.1-0.6,8.3-0.9,12.5-0.6c12.2,0.8,23.5,4.5,33.5,11.6
		c11.1,7.8,19.1,18.1,23.8,30.8c1.6,4.2,2.7,8.5,3.3,12.9c0.5,3,0.7,6.1,0.7,9.2c0,2.7-0.4,5.5-0.6,8.2c-0.3,3.8-1.2,7.5-2.3,11.2
		c-2.1,7-5.4,13.5-9.8,19.4c-2.2,3-4.6,5.7-7.2,8.2c-5.1,4.9-10.9,8.9-17.3,11.9c-5.1,2.4-10.4,4-15.9,5.1c-4.9,0.9-9.8,1.4-14.7,1
		c-7.4-0.5-14.6-2-21.5-4.8c-8.3-3.4-15.4-8.4-21.8-14.7c-22.7-22.8-45.4-45.5-68.1-68.2c-4.8-4.8-10.4-7.9-17.2-9.1
		c-3.1-0.5-6.2-0.8-9.3-0.4c-5.8,0.6-11,2.5-15.7,5.9c-6.6,4.7-10.8,11.1-12.8,19c-1,3.9-1.1,7.8-0.7,11.6
		c0.6,5.9,2.9,11.2,6.5,15.9c4.7,6.1,10.8,10.1,18.3,11.8c3.5,0.8,7.1,1.2,10.8,0.8c6.1-0.7,11.5-2.7,16.4-6.4
		c1.3-1,2.6-2.1,3.8-3.3c3.5-3.5,7-7,10.5-10.5C563.6,379.7,563.7,379.4,564,379z"/>
	<path class="st0" d="M877.5,365v67h-36.3v-67c-0.5-15.3-13-27.6-28.5-27.6s-28,12.3-28.5,27.6l0,0v67h-36.3v-67l0,0
		c0.3-11.7,2.9-22.1,7.9-31.2c5.3-9.7,12.8-17.2,22.5-22.7c9.8-5.4,21.3-8.1,34.5-8.1c13.1,0,24.5,2.7,34.3,8.1s17.3,13,22.5,22.7
		C874.6,342.9,877.2,353.3,877.5,365z"/>
	<g>
		<path class="st0" d="M429,379c7.7,7.7,15.2,15.2,22.7,22.7c-0.5,0.6-1.1,1.2-1.7,1.7c-3.5,3.5-6.9,6.9-10.4,10.4
			c-7.2,7.2-15.8,12.3-25.5,15.4c-3.5,1.1-7.1,1.9-10.8,2.4c-4.1,0.6-8.2,0.9-12.3,0.6c-13-0.8-24.8-4.9-35.3-12.7
			c-8.7-6.5-15.4-14.6-20-24.4c-2.6-5.4-4.2-11-5.3-16.9c-0.6-3.4-0.8-6.9-0.9-10.3c-0.1-2.8,0.4-5.6,0.6-8.4
			c0.3-4.2,1.4-8.3,2.7-12.3c2.4-7.3,6-13.9,10.7-20c6.4-8.2,14.4-14.4,23.8-18.7c4.9-2.3,10.1-3.8,15.4-4.8c4.9-0.9,9.8-1.3,14.7-1
			c7.4,0.5,14.6,2,21.5,4.8c2.5,1.1,5,2.3,7.3,3.6c3.6,2.1,6.9,4.4,14.3,11c8.4,7.5,12.5,12.7,12.5,12.7l-20.3,25
			c0,0-14.7-15-15.2-15.5c-4.8-4.8-10.4-7.9-17.2-9.1c-3.1-0.5-6.2-0.8-9.3-0.4c-5.8,0.6-11,2.5-15.7,5.9
			c-6.6,4.7-10.8,11.1-12.8,19c-1,3.9-1.1,7.8-0.7,11.6c0.6,5.9,2.9,11.2,6.5,15.9c4.7,6.1,10.8,10.1,18.3,11.8
			c3.5,0.8,7.1,1.2,10.8,0.8c6.1-0.7,11.5-2.7,16.4-6.4c1.8-1.3,3-2.5,3.8-3.3C422.3,386,427.1,381,429,379z"/>
	</g>
</g>
</svg>
