<svg version="1" xmlns="http://www.w3.org/2000/svg" width="682.667" height="682.667" viewBox="0 0 512.000000 512.000000"><path d="M201.9 62.2c-1 .4-1.9 1.3-1.9 2 0 1.1-15.9 50.1-18.1 55.9l-1.1 2.7H94.2c-47.7 0-88.4.1-90.4.1L0 123v170.5C0 429.2.3 464 1.3 464.1c.6 0 115.7.1 255.7.2h254.5l.3-170.9.2-170.9h-87.5l-9.9-30c-5.5-16.5-10.1-30.2-10.3-30.4-.5-.7-200.4-.6-202.4.1zm126.9 99.7c36.9 7.6 67.9 29.2 87.8 61.1 7.3 11.7 14.8 30 17 41.5.4 2.2.9 4.7 1 5.5 1.9 9.5 2.4 31.9 1.1 42-3.9 28.2-17.4 54.9-38.6 76.1-29.8 29.7-66.7 42.7-109.6 38.6-43.5-4.1-84.3-32.6-104.8-73.2-3.3-6.7-9.2-22.2-10.1-26.8-2.2-10.8-2.7-13.9-3.3-18.7-3.3-29.5 3.3-59 18.9-84.3 12.4-20.2 30.4-37.2 51.8-48.9 11.9-6.5 32.7-13.1 46-14.5 3-.3 5.6-.6 5.8-.8.1-.1 6.2-.1 13.5.1 8.6.1 16.7.9 23.5 2.3zm-209 35.1l.1 18.7-35.2-.1-35.2-.1v-18.6l-.1-18.6H119.7l.1 18.7z"/><path d="M292.9 202.4c-.2.2-2.4.6-4.9.9-21.1 2.5-44.9 17.1-59 36.2-7.4 10-14 25.2-16.6 38-1 5.4-1.2 22.9-.3 29 6 38.6 34.7 68.7 73.4 77 1.7.4 8.5.8 15.1 1 25 .7 46-7.3 64.7-24.6 15.1-13.9 24.9-32.8 28.2-54.4.7-4.7.7-19.7 0-24-.3-1.7-.7-4.5-1.1-6.3-1.5-9.1-8.1-24.5-14.4-33.8-1.9-2.7-5.9-7.5-8.9-10.7-5.6-5.9-18-15.7-19.9-15.7-.6 0-1.2-.4-1.4-.8-.6-1.4-15.1-7.4-22.8-9.4-6.7-1.8-30.8-3.6-32.1-2.4z"/></svg>